<?xml version="1.0" standalone="no"?>
<!DOCTYPE svg PUBLIC "-//W3C//DTD SVG 20010904//EN"
 "http://www.w3.org/TR/2001/REC-SVG-20010904/DTD/svg10.dtd">
<svg version="1.0" xmlns="http://www.w3.org/2000/svg"
 width="2816.000000pt" height="1536.000000pt" viewBox="0 0 2816.000000 1536.000000"
 preserveAspectRatio="xMidYMid meet">

<g transform="translate(0.000000,1536.000000) scale(0.100000,-0.100000)"
fill="#000000" stroke="none">
<path d="M13950 13989 c-175 -12 -416 -77 -565 -151 -42 -21 -59 -31 -545
-320 -162 -96 -374 -222 -470 -278 -96 -57 -258 -152 -360 -213 -102 -60 -221
-131 -265 -157 -44 -25 -258 -152 -475 -282 -414 -246 -766 -455 -935 -553
-55 -32 -170 -99 -255 -150 -85 -51 -245 -145 -355 -210 -579 -343 -656 -397
-799 -560 -139 -159 -226 -313 -294 -516 -83 -250 -75 16 -80 -2829 -2 -1845
0 -2573 8 -2674 29 -349 164 -643 427 -925 l79 -84 59 64 c62 66 223 234 383
400 80 83 91 98 77 109 -13 10 -15 9 -15 -8 0 -12 -4 -24 -10 -27 -5 -3 -10
-1 -10 5 0 6 -5 8 -11 4 -8 -4 -8 -8 0 -13 6 -4 -7 -25 -33 -54 -40 -45 -74
-67 -45 -29 13 15 12 16 -3 3 -10 -7 -18 -21 -18 -30 0 -23 -20 -41 -45 -41
-16 0 -17 -2 -5 -10 8 -5 10 -10 4 -10 -20 0 -145 140 -201 227 -106 162 -154
311 -172 528 -5 66 -10 607 -11 1203 l-1 1082 155 0 156 0 0 -1114 c0 -970 2
-1124 16 -1196 29 -157 97 -306 200 -440 72 -95 66 -94 142 -15 37 39 184 191
327 339 143 147 264 274 268 282 5 8 -6 41 -28 85 -20 39 -46 106 -58 148
l-22 76 2 2070 2 2069 22 71 c50 167 130 263 309 372 204 123 273 165 380 228
58 34 179 106 270 160 91 54 226 134 300 177 130 76 177 109 138 95 -10 -4
-18 -2 -18 4 0 7 9 9 22 6 21 -6 52 11 358 193 410 244 508 305 503 313 -3 6
-1 7 6 3 6 -4 74 30 157 80 118 71 143 90 128 96 -14 6 -13 7 7 3 20 -3 72 23
233 119 201 120 241 146 203 133 -11 -4 -16 -3 -12 4 4 6 13 8 20 5 8 -3 38 9
69 25 41 22 54 34 50 47 -5 13 -4 14 4 3 14 -20 103 33 96 57 -5 13 -4 14 4 4
7 -11 22 -6 73 25 35 22 73 44 84 50 11 7 70 41 130 77 201 118 328 146 503
110 l32 -6 0 251 0 251 48 -6 c105 -14 300 -97 427 -183 22 -16 130 -81 240
-146 110 -65 288 -170 395 -235 191 -114 559 -332 1035 -615 132 -78 409 -242
615 -365 464 -276 776 -460 900 -533 205 -119 380 -276 355 -318 -4 -5 -34
-23 -68 -40 -34 -18 -94 -51 -132 -74 -39 -23 -103 -59 -143 -79 -40 -20 -71
-40 -68 -44 2 -4 24 -37 49 -74 38 -56 59 -102 92 -196 5 -15 1 -17 143 67 57
34 105 61 108 61 2 0 38 20 80 45 41 25 79 45 83 45 19 0 33 -63 40 -170 4
-63 6 -1096 5 -2295 l-2 -2180 -25 -95 c-14 -52 -36 -121 -50 -152 l-26 -58
157 -157 c87 -87 169 -167 182 -178 l25 -20 -19 22 c-18 22 -18 23 17 80 45
74 92 190 117 290 19 75 20 120 20 1211 l0 1133 153 -3 152 -3 1 -1095 c1
-602 -2 -1148 -7 -1214 -11 -141 -36 -246 -88 -364 -58 -134 -139 -251 -163
-236 -26 16 94 -115 217 -236 121 -120 127 -124 142 -105 209 279 290 457 345
750 10 56 13 579 13 2685 l0 2615 -22 111 c-63 307 -181 538 -390 765 -132
142 -259 227 -838 564 -121 71 -341 200 -490 288 -148 88 -322 191 -385 228
-184 107 -371 219 -425 254 -27 18 -81 50 -120 72 -38 22 -110 64 -160 93 -49
29 -110 64 -134 77 -24 13 -62 36 -85 52 -22 15 -99 62 -171 103 -71 41 -276
161 -455 267 -514 305 -646 383 -780 462 -69 40 -170 100 -225 133 -311 186
-620 261 -975 235z m-30 -628 c0 -170 0 -171 -52 -171 -26 0 -149 -42 -224
-76 -58 -26 -183 -98 -519 -299 -93 -56 -253 -150 -355 -210 -171 -100 -666
-392 -770 -454 -25 -15 -207 -124 -405 -243 -198 -118 -484 -289 -635 -378
-151 -90 -419 -248 -595 -353 -176 -104 -369 -219 -430 -255 -178 -105 -285
-182 -360 -257 -115 -115 -201 -278 -236 -449 -18 -86 -19 -156 -19 -1216 l0
-1125 -153 0 -152 0 0 1180 c0 1111 1 1185 19 1265 60 279 224 529 443 678 48
32 337 208 448 272 147 85 320 186 535 315 140 84 356 212 480 285 124 73 306
181 405 240 99 59 259 153 355 210 96 57 256 151 355 210 99 59 326 194 505
300 179 105 406 240 505 300 492 294 610 351 785 383 75 13 70 25 70 -152z
m495 127 c105 -28 322 -139 605 -310 205 -123 349 -208 1160 -688 693 -410
948 -561 1105 -655 94 -57 310 -185 480 -285 960 -566 963 -568 1089 -701 125
-134 211 -292 269 -499 21 -74 21 -88 25 -1277 l3 -1203 -156 0 -155 0 0 1124
c0 1203 0 1195 -50 1341 -59 171 -175 329 -315 430 -33 23 -206 130 -385 237
-179 107 -354 212 -390 234 -36 23 -96 59 -135 81 -180 104 -814 480 -1340
793 -679 405 -849 505 -1425 843 -336 198 -353 205 -537 243 -23 4 -23 6 -23
165 l0 161 48 -6 c26 -4 83 -17 127 -28z m-495 -861 l0 -123 -47 -12 c-63 -17
-175 -71 -168 -81 2 -5 -3 -8 -12 -7 -10 0 -18 -5 -19 -11 -1 -7 -3 -15 -4
-18 -1 -3 -3 -8 -4 -12 -1 -5 -5 -13 -9 -19 -4 -7 0 -15 9 -18 9 -4 13 -2 8 5
-4 6 0 15 7 20 20 12 23 11 49 -11 12 -11 27 -17 31 -14 5 3 9 0 9 -5 0 -6 -4
-11 -9 -11 -5 0 -12 -8 -15 -17 -6 -15 -4 -15 14 2 11 10 23 15 27 11 4 -4 1
-12 -7 -17 -12 -8 -11 -9 5 -7 13 2 19 -2 17 -11 -1 -7 2 -18 7 -25 5 -6 7
-16 3 -22 -13 -19 -103 -65 -120 -62 -13 3 -9 8 14 21 17 9 34 13 38 10 3 -4
6 -4 6 -1 0 3 -10 13 -22 24 -13 10 -17 12 -11 4 10 -11 7 -17 -15 -30 -18
-12 -31 -14 -39 -7 -9 6 -13 6 -13 -2 0 -6 5 -11 11 -11 5 0 7 -4 4 -10 -3 -5
0 -10 7 -10 19 0 -8 -23 -62 -52 -25 -14 -69 -39 -97 -56 -32 -19 -60 -29 -70
-25 -11 4 -14 3 -9 -5 5 -8 2 -10 -8 -6 -9 3 -16 11 -16 18 0 7 -3 6 -9 -2 -4
-8 -14 -13 -22 -12 -28 4 -40 0 -33 -12 4 -6 3 -8 -4 -4 -5 3 -12 3 -15 -1 -2
-5 -2 -2 -1 5 2 6 -1 12 -7 12 -6 0 -9 7 -6 15 4 8 1 17 -5 21 -7 4 -8 3 -4
-4 4 -8 -3 -16 -20 -22 -19 -8 -29 -8 -34 0 -4 6 -14 8 -22 5 -9 -4 -18 0 -21
8 -6 16 6 39 19 36 21 -4 35 2 29 12 -4 6 -14 8 -22 4 -13 -5 -14 -3 -3 10 12
15 14 15 22 1 13 -23 25 -20 23 5 -1 12 -10 26 -20 31 -12 7 -16 7 -11 0 4 -6
-1 -10 -12 -9 -27 2 -129 -61 -135 -83 -3 -12 -13 -20 -24 -19 -16 1 -16 2 0
6 9 2 17 9 17 14 0 5 -14 2 -31 -7 -25 -13 -29 -18 -18 -26 10 -7 8 -8 -8 -3
-25 7 -36 -5 -22 -25 8 -13 10 -13 19 0 9 12 10 12 8 -5 -2 -14 2 -19 14 -17
9 1 19 -2 23 -8 3 -6 0 -7 -9 -4 -9 3 -16 1 -16 -5 0 -11 16 -16 35 -11 20 5
69 -1 80 -10 7 -5 16 -6 20 -2 5 4 5 1 1 -6 -6 -10 -11 -10 -22 -1 -21 17 -46
3 -42 -24 1 -13 -5 -31 -14 -40 -18 -18 -33 -23 -24 -8 3 5 0 8 -7 7 -6 0 -13
4 -14 9 -1 6 6 9 15 7 15 -2 15 -1 2 7 -9 7 -10 11 -3 11 6 0 11 8 10 19 0 11
-8 18 -17 16 -8 -1 -18 3 -22 9 -5 6 -8 1 -8 -13 0 -19 3 -21 14 -12 26 22 25
-4 -2 -29 -19 -18 -24 -20 -19 -7 3 9 2 17 -4 17 -5 0 -12 -7 -15 -15 -4 -9
-19 -15 -36 -15 -22 0 -29 4 -25 14 4 10 1 13 -8 9 -8 -3 -12 -10 -9 -15 4 -6
0 -14 -7 -19 -10 -7 -7 -8 10 -7 14 2 26 -3 28 -12 4 -13 3 -13 -5 -1 -15 21
-42 -3 -35 -29 6 -23 14 -25 31 -8 7 7 12 8 12 4 0 -5 -6 -14 -13 -20 -7 -6
-10 -10 -8 -9 2 2 11 -2 18 -9 11 -9 17 -9 24 3 7 12 9 11 9 -2 0 -20 -27 -33
-34 -16 -3 7 -5 6 -5 -3 -1 -9 -14 -23 -30 -33 -34 -20 -41 -21 -41 -6 0 5 5
7 10 4 6 -3 10 -2 10 4 0 5 9 13 20 16 17 6 18 8 6 21 -19 18 -32 18 -17 0 16
-19 -16 -31 -38 -14 -14 12 -14 11 -2 -4 12 -16 11 -18 -7 -18 -22 0 -47 -34
-37 -50 3 -5 -8 -16 -24 -25 -38 -19 -47 -19 -27 0 8 8 19 15 25 15 6 0 10 3
9 8 0 4 2 15 7 25 5 12 2 24 -10 37 -20 22 -11 43 15 35 21 -7 36 10 19 21 -7
4 -9 3 -6 -3 4 -7 -3 -10 -18 -9 -14 0 -25 4 -25 9 0 4 -5 7 -11 7 -5 0 -7 -4
-4 -10 3 -5 1 -10 -4 -10 -14 0 -14 13 0 27 9 9 7 12 -10 10 -11 -1 -21 -5
-21 -9 0 -4 -4 -8 -10 -8 -18 0 -10 22 10 27 35 9 21 21 -22 19 -28 -2 -43 -7
-43 -16 0 -7 -6 -15 -14 -18 -9 -3 -11 0 -6 8 6 9 3 9 -14 1 -11 -7 -22 -22
-22 -34 -1 -16 -3 -17 -6 -5 -4 17 -33 14 -33 -4 0 -5 5 -6 10 -3 6 3 10 1 10
-5 0 -8 11 -9 31 -5 25 6 30 4 24 -6 -5 -8 -5 -11 0 -7 4 4 20 -1 34 -11 20
-14 31 -17 45 -9 9 5 20 8 23 5 2 -3 -5 -8 -16 -12 -12 -3 -21 -11 -21 -16 0
-6 -4 -8 -9 -5 -5 4 -11 3 -14 -1 -2 -5 -3 -3 -2 2 3 12 -15 29 -35 33 -8 2
-17 8 -21 13 -3 5 -18 0 -33 -12 l-28 -22 7 23 c6 19 4 22 -9 17 -10 -4 -15
-3 -11 3 11 17 -6 11 -71 -25 -35 -20 -62 -41 -60 -48 1 -6 1 -9 -1 -4 -3 4
-9 7 -14 7 -6 0 -7 -5 -3 -12 4 -7 3 -8 -4 -4 -6 4 -72 -30 -147 -74 -121 -73
-135 -84 -123 -98 12 -15 11 -16 -4 -4 -14 12 -28 6 -102 -38 -50 -30 -83 -56
-79 -62 3 -7 1 -8 -6 -4 -12 8 -122 -50 -249 -131 -45 -29 -85 -53 -88 -53 -3
0 -29 -15 -57 -33 -29 -19 -97 -60 -152 -92 -55 -32 -181 -106 -280 -165 -920
-546 -900 -534 -980 -621 -106 -118 -173 -249 -201 -398 -20 -103 -21 -1621
-1 -1621 7 0 14 -11 15 -26 1 -15 -2 -23 -8 -19 -6 4 -8 10 -5 15 3 5 1 11 -4
14 -5 3 -9 -16 -9 -42 -1 -27 -2 -53 -3 -58 -1 -5 -1 -101 0 -213 1 -189 2
-203 19 -197 14 5 13 3 -3 -10 -14 -11 -16 -18 -7 -21 6 -3 12 -9 12 -14 0 -6
-4 -8 -9 -5 -11 7 -9 -44 3 -63 6 -10 5 -12 -2 -7 -8 5 -11 -5 -10 -32 1 -25
6 -39 15 -39 7 0 13 4 13 9 0 4 9 3 20 -4 11 -7 20 -17 20 -22 0 -4 -6 -4 -12
1 -20 15 -53 0 -55 -25 -2 -15 1 -21 9 -16 7 5 8 3 3 -6 -4 -7 -2 -16 6 -22
11 -8 10 -9 -4 -4 -16 5 -18 1 -14 -32 1 -21 7 -43 11 -51 5 -7 4 -17 -2 -23
-8 -8 -5 -20 10 -40 11 -16 18 -32 15 -34 -3 -3 -12 7 -20 22 l-15 29 3 -35
c1 -19 5 -33 8 -30 2 3 14 -6 26 -20 11 -14 20 -19 21 -12 0 6 5 12 11 12 8 0
8 -4 -1 -14 -6 -8 -17 -13 -24 -10 -24 9 -45 -23 -37 -54 5 -15 5 -36 1 -47
-8 -23 -2 -55 11 -55 5 0 6 12 3 26 -7 27 -7 27 13 8 23 -21 24 -32 5 -52 -19
-21 -6 -27 14 -8 9 9 14 20 10 23 -3 3 3 20 13 37 10 17 24 48 31 69 6 20 16
37 21 37 12 0 12 -27 -1 -35 -5 -3 -7 -13 -4 -23 5 -14 4 -15 -5 -2 -9 13 -11
13 -11 -3 0 -10 6 -20 13 -22 15 -6 16 -57 1 -76 -12 -15 -28 -61 -25 -69 1
-3 10 -4 19 -2 15 2 15 1 -1 -8 -9 -6 -15 -16 -11 -21 4 -7 10 -7 18 0 8 7 12
3 14 -15 1 -13 -3 -24 -8 -24 -6 0 -10 -5 -10 -11 0 -5 4 -8 8 -5 5 3 8 -8 8
-24 0 -19 -4 -26 -13 -23 -7 3 -13 1 -13 -5 0 -5 7 -12 15 -16 16 -6 21 -36 5
-36 -5 0 -6 -7 -3 -17 4 -11 3 -14 -5 -9 -16 10 -15 43 1 50 6 3 2 3 -11 0
-15 -4 -22 -1 -20 6 2 7 -4 15 -12 17 -9 3 -11 1 -5 -4 6 -4 11 -12 12 -18 1
-5 5 -19 8 -30 5 -13 4 -16 -2 -8 -8 12 -42 11 -62 -2 -5 -3 -12 -1 -16 5 -5
9 23 15 48 11 5 -1 7 4 4 11 -2 7 -10 12 -16 11 -6 -2 -17 -4 -23 -5 -19 -4
-28 -21 -18 -34 11 -12 39 -12 58 0 7 4 15 1 18 -9 6 -13 8 -14 15 -3 7 10 9
10 9 1 0 -7 8 -13 17 -13 13 0 14 -3 5 -12 -13 -13 -16 -32 -4 -24 4 2 9 -12
10 -32 2 -28 0 -33 -8 -22 -6 9 -10 10 -10 3 0 -6 5 -15 10 -18 6 -4 10 -54
10 -123 -1 -64 -1 -153 -1 -197 0 -52 -4 -82 -12 -87 -9 -6 -9 -8 0 -8 8 0 12
-30 12 -105 0 -80 -3 -104 -12 -99 -9 5 -9 4 1 -7 6 -7 12 -22 12 -34 0 -12
-6 -27 -12 -34 -8 -8 -8 -11 -2 -8 13 7 21 -32 16 -70 -3 -17 -10 -21 -33 -21
-16 1 -32 5 -35 10 -3 4 -9 6 -14 3 -5 -3 -2 -14 7 -25 15 -18 17 -18 29 -2
10 12 13 13 14 3 0 -7 6 -11 15 -7 12 4 15 -3 15 -34 0 -43 -9 -54 -37 -43
-16 6 -16 8 4 13 l22 5 -24 12 c-14 6 -23 7 -20 2 3 -4 -2 -20 -11 -34 -11
-16 -12 -25 -5 -25 7 0 9 -4 6 -10 -3 -5 -1 -10 5 -10 7 0 9 7 6 16 -5 13 -2
15 14 11 11 -3 23 -1 26 4 3 5 10 7 15 3 5 -3 16 0 24 6 8 6 20 8 26 4 9 -5
10 -2 6 9 -3 9 -2 19 2 21 10 7 24 -140 15 -157 -4 -6 -3 -9 1 -4 5 4 18 -22
31 -57 12 -35 32 -85 45 -112 12 -27 26 -56 30 -64 5 -11 1 -16 -12 -16 -11 0
-19 4 -19 8 0 4 5 8 12 8 6 0 8 3 5 6 -4 4 -13 2 -21 -5 -11 -9 -17 -8 -30 4
-9 9 -20 13 -26 10 -5 -3 -10 -1 -10 4 0 6 -5 11 -10 11 -7 0 -7 -6 0 -19 7
-15 7 -22 -2 -27 -7 -4 -10 -4 -6 0 4 5 -2 18 -13 29 -22 25 -53 32 -45 12 3
-8 1 -17 -5 -20 -13 -8 -51 4 -44 15 5 8 -20 22 -45 24 -8 1 -15 8 -15 16 0 8
6 14 13 12 8 -1 11 2 8 7 -10 15 5 40 20 34 8 -3 14 1 14 11 0 9 5 16 10 16 6
0 10 -4 10 -10 0 -5 5 -10 11 -10 6 0 9 6 6 13 -3 8 -2 19 3 26 5 9 9 5 14
-13 3 -14 11 -26 16 -26 15 0 12 20 -2 21 -10 0 -10 2 0 6 10 4 9 8 -5 19 -24
18 -43 18 -43 -1 0 -23 -16 -18 -17 5 -1 11 2 18 8 15 5 -4 9 -1 9 4 0 6 -5
11 -11 11 -6 0 -9 7 -6 14 4 11 1 13 -11 9 -14 -5 -15 -4 -6 8 13 16 15 49 3
49 -4 0 -11 -5 -14 -10 -5 -8 -11 -7 -20 0 -8 7 -19 9 -25 5 -10 -6 -13 3 -12
40 0 11 -5 23 -12 27 -8 6 -8 8 2 8 15 0 16 37 0 42 -8 3 -8 9 -1 23 8 14 7
25 -6 44 -9 14 -11 22 -4 18 7 -5 16 0 22 11 8 15 5 23 -17 41 -23 19 -24 22
-6 17 14 -4 21 -2 21 9 0 8 -4 15 -8 15 -4 0 -6 12 -4 28 2 15 -1 32 -6 39 -7
7 -6 14 1 18 5 3 7 17 4 30 -3 13 0 26 6 30 9 6 9 10 -1 16 -12 8 -12 10 0 18
10 7 9 11 -8 23 -21 15 -19 28 6 28 8 0 12 -4 9 -9 -3 -4 7 -6 22 -2 25 5 26
6 4 9 -24 4 -26 22 -2 30 8 3 10 0 5 -9 -5 -8 -5 -11 0 -7 4 4 16 3 26 -3 15
-7 17 -6 13 6 -3 8 -11 12 -17 8 -5 -3 -7 -1 -4 5 4 5 16 8 26 5 10 -3 22 0
25 5 4 7 -18 9 -64 5 -49 -3 -70 -1 -70 7 0 7 8 9 20 5 11 -3 20 -2 20 3 0 6
-6 12 -12 15 -10 3 -10 7 0 20 11 13 10 15 -5 13 -12 -2 -17 -10 -15 -22 2
-11 1 -16 -4 -12 -4 4 -13 0 -21 -10 -8 -9 -12 -11 -8 -4 6 12 -12 16 -64 14
-13 -1 -31 3 -40 8 -14 7 -17 3 -19 -27 -2 -26 0 -33 10 -27 10 6 9 4 -1 -9
-10 -13 -14 -75 -17 -269 -1 -139 -4 -257 -6 -263 -1 -5 -5 103 -8 240 l-6
250 -2 -325 c-2 -352 6 -441 52 -564 28 -75 75 -168 110 -219 34 -49 34 -61 0
-16 -15 19 -50 84 -79 144 -97 201 -89 73 -95 1475 -3 679 -3 1710 0 2290 6
1187 -1 1087 85 1268 57 120 115 200 203 284 86 81 160 131 412 280 107 63
353 209 545 323 193 115 386 229 430 255 44 26 199 118 345 205 146 87 398
237 560 333 162 96 477 283 700 416 538 322 605 360 674 392 66 30 176 62 219
63 l27 1 0 -123z m-3 -174 c-3 -10 -5 -4 -5 12 0 17 2 24 5 18 2 -7 2 -21 0
-30z m-92 -33 c3 -5 1 -10 -4 -10 -6 0 -11 5 -11 10 0 6 2 10 4 10 3 0 8 -4
11 -10z m94 -74 c-1 -68 -5 -86 -18 -91 -13 -5 -14 -4 -3 6 6 7 12 17 12 22 0
4 -6 5 -12 1 -10 -6 -9 -3 0 9 8 9 13 37 12 64 -2 61 -1 73 5 73 3 0 5 -38 4
-84z m-23 43 c3 -6 1 -16 -5 -22 -9 -9 -11 -8 -6 6 4 9 3 17 -3 17 -6 0 -12
-6 -15 -12 -2 -7 -8 -9 -13 -5 -5 4 -2 12 6 17 20 13 27 12 36 -1z m-149 -12
c14 1 20 -4 16 -13 -4 -10 0 -12 11 -8 9 3 13 11 9 17 -4 6 -1 7 7 2 7 -4 16
-2 21 6 4 7 11 10 16 6 4 -5 1 -12 -7 -17 -10 -6 -11 -10 -3 -10 7 0 17 -10
23 -22 10 -22 10 -22 -4 -4 -8 10 -20 15 -27 10 -8 -4 -10 -3 -5 4 10 16 -6
15 -29 -2 -16 -12 -21 -11 -39 6 -12 10 -28 17 -38 15 -11 -3 -15 0 -11 10 4
9 12 11 22 7 9 -4 26 -7 38 -7z m128 -27 c3 -6 -1 -7 -9 -4 -18 7 -21 14 -7
14 6 0 13 -4 16 -10z m-19 -79 c-9 -12 -8 -14 7 -8 18 7 24 -7 8 -18 -12 -7
-24 12 -29 43 -2 20 -1 22 12 10 11 -10 11 -16 2 -27z m-26 -11 c0 -5 -4 -10
-10 -10 -5 0 -10 5 -10 10 0 6 5 10 10 10 6 0 10 -4 10 -10z m-620 -163 c0 -8
-7 -14 -15 -14 -11 0 -12 4 -4 14 6 7 13 13 15 13 2 0 4 -6 4 -13z m-50 -31
c0 -3 -4 -8 -10 -11 -5 -3 -10 -1 -10 4 0 6 5 11 10 11 6 0 10 -2 10 -4z m37
-46 c4 -12 3 -13 -5 -1 -5 7 -15 10 -21 7 -6 -4 -11 -2 -11 4 0 17 33 8 37
-10z m29 -30 c0 -12 -4 -16 -9 -11 -5 5 -6 14 -3 20 10 15 12 14 12 -9z m44
-5 c0 -12 -19 -12 -23 0 -4 9 -1 12 9 8 7 -3 14 -7 14 -8z m126 -3 c1 -7 0 -8
-3 -2 -7 15 -26 12 -20 -3 5 -14 -31 -43 -41 -33 -3 3 0 6 7 6 6 0 16 12 21
26 10 25 32 29 36 6z m-291 -2 c3 -5 1 -10 -4 -10 -6 0 -11 5 -11 10 0 6 2 10
4 10 3 0 8 -4 11 -10z m55 -15 c-14 -17 -40 -20 -40 -5 0 5 7 7 15 4 8 -4 15
-1 15 5 0 6 5 11 11 11 8 0 8 -5 -1 -15z m90 -39 c0 -3 -4 -8 -10 -11 -5 -3
-10 -1 -10 4 0 6 5 11 10 11 6 0 10 -2 10 -4z m50 -10 c0 -2 -7 -7 -16 -10 -8
-3 -12 -2 -9 4 6 10 25 14 25 6z m-149 -29 c-1 -12 -15 -9 -19 4 -3 6 1 10 8
8 6 -3 11 -8 11 -12z m84 -7 c-3 -5 -12 -10 -18 -10 -7 0 -6 4 3 10 19 12 23
12 15 0z m-80 -40 c3 -6 -1 -7 -9 -4 -18 7 -21 14 -7 14 6 0 13 -4 16 -10z
m-145 -22 c0 -6 -6 -5 -15 2 -8 7 -15 14 -15 16 0 2 7 1 15 -2 8 -4 15 -11 15
-16z m37 16 c-3 -3 -12 -4 -19 -1 -8 3 -5 6 6 6 11 1 17 -2 13 -5z m12 -30
c-13 -7 -24 -20 -24 -30 0 -9 -6 -19 -13 -21 -9 -4 -10 1 -3 20 5 14 7 28 3
33 -4 4 -2 4 4 1 7 -4 17 0 24 8 7 8 17 12 22 8 6 -3 0 -11 -13 -19z m61 8 c0
-5 -16 -16 -35 -25 -21 -10 -35 -12 -35 -6 0 6 9 13 20 16 11 3 20 9 20 14 0
5 7 9 15 9 8 0 15 -4 15 -8z m-407 -8 c7 -8 -3 -34 -13 -34 -5 0 -8 9 -7 20 1
20 8 25 20 14z m-58 -33 c3 -5 1 -12 -5 -16 -5 -3 -10 1 -10 9 0 18 6 21 15 7z
m29 -17 c3 -8 2 -12 -4 -9 -6 3 -10 10 -10 16 0 14 7 11 14 -7z m50 -19 c3 -8
1 -15 -4 -15 -6 0 -10 7 -10 15 0 8 2 15 4 15 2 0 6 -7 10 -15z m79 -40 c4 -8
1 -17 -6 -21 -7 -4 -9 -4 -5 1 4 4 3 14 -3 22 -7 8 -8 13 -1 13 5 0 12 -7 15
-15z m64 -22 c2 -6 -3 -13 -12 -16 -8 -4 -15 -2 -15 3 0 6 6 10 13 10 8 0 7 4
-3 11 -12 9 -12 10 -1 7 8 -3 16 -9 18 -15z m-367 -14 c0 -14 -17 -10 -23 5
-4 10 -1 13 9 9 7 -3 14 -9 14 -14z m46 9 c-10 -6 -22 -6 -26 -2 -5 5 3 10 18
11 22 1 24 0 8 -9z m69 -57 c-3 -6 -11 -11 -17 -11 -6 0 -6 6 2 15 14 17 26
13 15 -4z m-90 -1 c3 -6 -4 -10 -17 -10 -18 0 -20 2 -8 10 19 12 18 12 25 0z
m-35 -25 c7 -9 8 -15 2 -15 -5 0 -12 7 -16 15 -3 8 -4 15 -2 15 2 0 9 -7 16
-15z m204 -22 c-10 -8 -32 -21 -47 -29 -27 -14 -27 -14 -15 5 7 11 21 22 33
23 11 2 19 9 18 15 -2 8 4 10 14 6 14 -6 14 -8 -3 -20z m-360 -2 c3 -5 -1 -11
-9 -14 -9 -4 -12 -1 -8 9 6 16 10 17 17 5z m174 -26 c-3 -3 -9 2 -12 12 -6 14
-5 15 5 6 7 -7 10 -15 7 -18z m-373 -93 c-3 -3 -11 0 -18 7 -9 10 -8 11 6 5
10 -3 15 -9 12 -12z m359 3 c-10 -8 -23 -15 -28 -15 -6 0 -1 7 10 15 10 8 23
15 28 15 6 0 1 -7 -10 -15z m-394 -26 c0 -14 -17 -10 -23 5 -4 10 -1 13 9 9 7
-3 14 -9 14 -14z m-40 1 c0 -5 -8 -10 -17 -10 -15 0 -16 2 -3 10 19 12 20 12
20 0z m75 -8 c-3 -3 -11 0 -18 7 -9 10 -8 11 6 5 10 -3 15 -9 12 -12z m285
-12 c-8 -5 -17 -7 -19 -4 -3 3 1 9 9 14 8 5 17 7 19 4 3 -3 -1 -9 -9 -14z
m-409 -13 c-10 -9 -11 -8 -5 6 3 10 9 15 12 12 3 -3 0 -11 -7 -18z m193 10 c3
3 6 1 6 -6 0 -8 -6 -11 -16 -7 -9 3 -20 6 -25 6 -5 0 -9 5 -9 10 0 7 6 7 19 1
10 -6 21 -7 25 -4z m29 -12 c-3 -9 -8 -14 -10 -11 -3 3 -2 9 2 15 9 16 15 13
8 -4z m151 -7 c-3 -4 -9 -8 -15 -8 -5 0 -9 4 -9 8 0 5 7 9 15 9 8 0 12 -4 9
-9z m-204 -38 c0 -5 -5 -10 -11 -10 -5 0 -7 5 -4 10 3 6 8 10 11 10 2 0 4 -4
4 -10z m130 1 c0 -5 -7 -12 -16 -15 -14 -5 -15 -4 -4 9 14 17 20 19 20 6z
m-45 -32 c-4 -5 -12 -9 -18 -8 -9 0 -8 2 1 6 6 2 9 10 6 15 -4 7 -2 8 5 4 6
-4 9 -12 6 -17z m-130 -29 c-3 -5 -12 -10 -18 -10 -7 0 -6 4 3 10 19 12 23 12
15 0z m10 -40 c-3 -5 -12 -10 -18 -10 -7 0 -6 4 3 10 19 12 23 12 15 0z m-45
-30 c-8 -5 -17 -7 -19 -4 -3 3 1 9 9 14 8 5 17 7 19 4 3 -3 -1 -9 -9 -14z
m-405 -30 c3 -5 1 -10 -4 -10 -6 0 -11 5 -11 10 0 6 2 10 4 10 3 0 8 -4 11
-10z m30 -20 c3 -5 1 -10 -4 -10 -6 0 -11 5 -11 10 0 6 2 10 4 10 3 0 8 -4 11
-10z m268 -15 c-10 -7 -21 -11 -25 -9 -12 8 16 32 30 27 9 -4 8 -9 -5 -18z
m-47 -10 c-3 -20 -26 -44 -26 -27 0 7 6 12 13 13 8 0 8 2 -2 6 -11 5 -11 7 0
14 18 11 18 11 15 -6z m-46 -45 c-8 -5 -17 -7 -19 -4 -3 3 1 9 9 14 8 5 17 7
19 4 3 -3 -1 -9 -9 -14z m-30 -16 c0 -2 -9 -8 -19 -13 -14 -8 -20 -7 -24 2 -3
7 5 13 19 13 13 1 24 0 24 -2z m-125 -74 c-3 -5 -12 -10 -18 -10 -7 0 -6 4 3
10 19 12 23 12 15 0z m-35 -18 c0 -5 -15 -15 -32 -24 -31 -14 -34 -14 -53 5
-20 20 -20 20 3 8 18 -9 28 -9 50 2 15 8 28 15 30 16 1 1 2 -3 2 -7z m-160
-92 c0 -5 -2 -10 -4 -10 -3 0 -8 5 -11 10 -3 6 -1 10 4 10 6 0 11 -4 11 -10z
m-40 -28 c0 -5 -11 -14 -25 -20 -39 -18 -44 -14 -10 7 36 23 35 23 35 13z
m-149 -92 c-8 -4 -21 -5 -30 -2 -12 5 -10 8 9 12 29 8 40 3 21 -10z m-31 -14
c0 -2 -7 -6 -15 -10 -8 -3 -15 -1 -15 4 0 6 7 10 15 10 8 0 15 -2 15 -4z
m-203 -122 c-3 -3 -12 -4 -19 -1 -8 3 -5 6 6 6 11 1 17 -2 13 -5z m-32 -14 c3
-5 1 -10 -4 -10 -6 0 -11 5 -11 10 0 6 2 10 4 10 3 0 8 -4 11 -10z m-25 -13
c0 -8 -11 -19 -25 -25 -34 -16 -49 -15 -33 2 7 7 19 13 28 12 8 -1 14 5 13 12
-2 6 2 12 7 12 6 0 10 -6 10 -13z m-120 -77 c0 -5 -2 -10 -4 -10 -3 0 -8 5
-11 10 -3 6 -1 10 4 10 6 0 11 -4 11 -10z m-430 -260 c-8 -5 -17 -7 -19 -4 -3
3 1 9 9 14 8 5 17 7 19 4 3 -3 -1 -9 -9 -14z m-140 -85 c-7 -9 -15 -13 -19
-10 -3 3 1 10 9 15 21 14 24 12 10 -5z m-405 -1685 c3 -5 1 -10 -4 -10 -6 0
-11 5 -11 10 0 6 2 10 4 10 3 0 8 -4 11 -10z m-5 -25 c0 -2 -6 -8 -13 -14 -10
-8 -14 -7 -14 2 0 8 6 14 14 14 7 0 13 -1 13 -2z m41 -12 c13 -16 12 -17 -3
-4 -10 7 -18 15 -18 17 0 8 8 3 21 -13z m-56 -73 c3 -5 1 -10 -4 -10 -6 0 -11
5 -11 10 0 6 2 10 4 10 3 0 8 -4 11 -10z m62 -45 c0 -8 -4 -12 -9 -9 -5 3 -6
10 -3 15 9 13 12 11 12 -6z m-25 -102 c-6 -2 -9 -10 -6 -15 4 -7 2 -8 -5 -4
-13 9 -5 26 12 25 9 0 8 -2 -1 -6z m-17 -63 c3 -5 1 -10 -4 -10 -6 0 -11 5
-11 10 0 6 2 10 4 10 3 0 8 -4 11 -10z m65 -40 c0 -5 -5 -10 -11 -10 -5 0 -7
5 -4 10 3 6 8 10 11 10 2 0 4 -4 4 -10z m-20 -160 c0 -5 -5 -10 -11 -10 -5 0
-7 5 -4 10 3 6 8 10 11 10 2 0 4 -4 4 -10z m-17 -62 c10 -16 14 -28 9 -28 -8
0 -32 43 -32 57 0 7 1 6 23 -29z m-41 -20 c-6 -6 -14 -9 -17 -6 -3 3 -3 13 1
22 5 12 10 14 17 7 8 -8 8 -14 -1 -23z m-5 -33 c0 -8 -4 -12 -9 -9 -5 3 -6 10
-3 15 9 13 12 11 12 -6z m63 -19 c0 -3 -4 -8 -10 -11 -5 -3 -10 -1 -10 4 0 6
5 11 10 11 6 0 10 -2 10 -4z m-60 -33 c0 -19 -13 -9 -16 12 -1 8 2 13 7 9 5
-3 9 -12 9 -21z m64 -1 c3 -5 -1 -9 -9 -9 -8 0 -12 4 -9 9 3 4 7 8 9 8 2 0 6
-4 9 -8z m0 -47 c-7 -16 -24 -21 -24 -6 0 8 7 13 27 20 1 1 0 -6 -3 -14z m-69
-15 c3 -5 1 -10 -4 -10 -6 0 -11 5 -11 10 0 6 2 10 4 10 3 0 8 -4 11 -10z m25
-50 c0 -5 -4 -10 -10 -10 -5 0 -10 5 -10 10 0 6 5 10 10 10 6 0 10 -4 10 -10z
m-4 -45 c-3 -9 0 -18 7 -21 7 -2 13 -15 14 -27 2 -21 2 -21 -9 -2 -6 11 -16
23 -21 26 -10 7 -3 39 9 39 3 0 3 -7 0 -15z m45 5 c1 -5 3 -14 4 -20 1 -5 3
-14 4 -20 0 -5 7 -8 14 -6 6 1 8 1 4 -2 -4 -2 -3 -10 4 -18 9 -11 8 -14 -5
-14 -9 0 -15 6 -13 13 1 6 -3 11 -9 10 -6 -1 -10 9 -8 23 2 18 -2 24 -11 20
-9 -3 -12 0 -8 10 6 16 22 19 24 4z m-1 -80 c0 -5 -5 -10 -11 -10 -5 0 -7 5
-4 10 3 6 8 10 11 10 2 0 4 -4 4 -10z m-60 -10 c0 -5 -5 -10 -11 -10 -5 0 -7
5 -4 10 3 6 8 10 11 10 2 0 4 -4 4 -10z m85 -40 c4 -6 11 -7 17 -4 7 4 8 2 4
-4 -4 -6 -13 -9 -21 -6 -9 4 -13 -1 -11 -13 2 -10 8 -18 14 -18 16 0 25 -12
17 -25 -4 -6 -12 -7 -18 -2 -17 12 -36 9 -46 -7 -10 -15 -21 -2 -18 20 4 26
19 40 34 34 12 -4 13 -3 5 8 -11 13 -7 27 9 27 4 0 11 -5 14 -10z m-71 -45 c3
-8 1 -15 -4 -15 -6 0 -10 7 -10 15 0 8 2 15 4 15 2 0 6 -7 10 -15z m61 -65
c-3 -4 2 -13 11 -20 8 -7 13 -19 10 -26 -3 -7 -1 -16 4 -19 12 -7 8 -43 -5
-41 -17 3 -35 17 -35 27 0 6 5 7 10 4 6 -3 10 -1 10 5 0 8 -7 9 -17 5 -10 -4
-24 -8 -30 -8 -7 0 -13 -4 -13 -9 0 -4 -5 -8 -11 -8 -8 0 -8 5 1 15 7 8 20 15
28 15 12 0 13 3 4 12 -7 7 -11 21 -11 33 1 17 2 17 6 2 2 -9 9 -15 14 -12 5 4
9 1 9 -4 0 -6 5 -11 11 -11 8 0 7 5 -2 16 -18 22 -20 44 -3 37 8 -3 12 -9 9
-13z m-55 -42 c0 -6 -6 -5 -15 2 -8 7 -15 14 -15 16 0 2 7 1 15 -2 8 -4 15
-11 15 -16z m157 -75 c-2 -16 -4 -5 -4 22 0 28 2 40 4 28 2 -13 2 -35 0 -50z
m-135 8 c-6 -4 -8 -11 -4 -17 10 -15 42 -25 42 -14 0 6 -4 10 -10 10 -5 0 -10
5 -10 11 0 6 9 8 23 3 33 -10 34 -14 7 -34 -18 -14 -27 -15 -32 -7 -6 9 -10 8
-17 -3 -6 -8 -14 -11 -18 -6 -4 5 -2 11 5 13 9 4 10 9 2 18 -12 15 -2 48 12
39 7 -4 7 -9 0 -13z m62 -70 c10 -16 -5 -41 -22 -38 -10 1 -17 -2 -17 -8 0 -5
3 -9 8 -7 12 4 8 -13 -7 -34 -15 -19 -15 -19 -14 1 0 11 -1 25 -2 30 -2 6 2
21 8 35 6 14 11 19 11 13 1 -7 9 -13 19 -12 10 0 12 3 5 6 -15 6 -17 23 -4 23
6 0 12 -4 15 -9z m73 -48 c-3 -10 -5 -2 -5 17 0 19 2 27 5 18 2 -10 2 -26 0
-35z m0 -55 c-3 -7 -5 -2 -5 12 0 14 2 19 5 13 2 -7 2 -19 0 -25z m-154 -3 c8
-19 -13 -31 -23 -14 -9 14 -4 29 10 29 4 0 10 -7 13 -15z m17 -40 c0 -8 -7
-15 -16 -15 -14 0 -14 3 -4 15 7 8 14 15 16 15 2 0 4 -7 4 -15z m66 -100 c0
-14 -6 -25 -13 -25 -7 0 -13 5 -13 10 0 6 5 10 10 10 6 0 9 3 9 8 -2 10 0 22
4 22 2 0 3 -11 3 -25z m71 -107 c-3 -8 -6 -5 -6 6 -1 11 2 17 5 13 3 -3 4 -12
1 -19z m0 -180 c-3 -8 -6 -5 -6 6 -1 11 2 17 5 13 3 -3 4 -12 1 -19z m0 -55
c-3 -10 -5 -4 -5 12 0 17 2 24 5 18 2 -7 2 -21 0 -30z m0 -95 c-3 -7 -5 -2 -5
12 0 14 2 19 5 13 2 -7 2 -19 0 -25z m0 -40 c-3 -8 -6 -5 -6 6 -1 11 2 17 5
13 3 -3 4 -12 1 -19z m1 -205 c-1 -87 -3 -132 -5 -100 -3 39 -8 57 -17 57 -8
0 -17 8 -20 17 -8 20 9 40 19 22 6 -8 4 -10 -5 -4 -8 5 -11 3 -8 -5 2 -8 10
-16 16 -18 9 -3 12 23 12 92 0 53 2 96 5 96 3 0 4 -71 3 -157z m-358 -98 c11
-13 10 -14 -4 -9 -9 3 -16 10 -16 15 0 13 6 11 20 -6z m80 5 c0 -5 -2 -10 -4
-10 -3 0 -8 5 -11 10 -3 6 -1 10 4 10 6 0 11 -4 11 -10z m-40 -20 c0 -5 -5
-10 -11 -10 -5 0 -7 5 -4 10 3 6 8 10 11 10 2 0 4 -4 4 -10z m-35 -29 c-3 -6
-11 -11 -16 -11 -5 0 -4 6 3 14 14 16 24 13 13 -3z m75 9 c0 -5 -5 -10 -11
-10 -5 0 -7 5 -4 10 3 6 8 10 11 10 2 0 4 -4 4 -10z m-80 -40 c0 -5 -5 -10
-11 -10 -5 0 -7 5 -4 10 3 6 8 10 11 10 2 0 4 -4 4 -10z m80 0 c0 -5 -2 -10
-4 -10 -3 0 -8 5 -11 10 -3 6 -1 10 4 10 6 0 11 -4 11 -10z m44 -26 c3 -8 2
-12 -4 -9 -6 3 -10 10 -10 16 0 14 7 11 14 -7z m236 -4 c0 -5 -5 -10 -11 -10
-5 0 -7 5 -4 10 3 6 8 10 11 10 2 0 4 -4 4 -10z m0 -50 c0 -16 -4 -30 -8 -30
-5 0 -8 10 -6 23 1 12 3 25 3 30 3 21 11 3 11 -23z m0 -50 c0 -5 -5 -10 -11
-10 -5 0 -7 5 -4 10 3 6 8 10 11 10 2 0 4 -4 4 -10z m0 -70 c0 -11 -4 -20 -9
-20 -5 0 -7 9 -4 20 3 11 7 20 9 20 2 0 4 -9 4 -20z m-3 -92 c-2 -13 -4 -3 -4
22 0 25 2 35 4 23 2 -13 2 -33 0 -45z m3 -46 c0 -23 -39 -47 -53 -33 -6 6 -7
14 -3 18 4 4 12 1 17 -7 8 -11 8 -8 3 10 -6 23 -6 24 11 10 17 -14 18 -13 12
3 -3 9 -2 17 3 17 6 0 10 -8 10 -18z m-398 -197 c3 -13 1 -22 -3 -19 -9 5 -13
44 -5 44 2 0 6 -11 8 -25z m258 12 c0 -5 -8 -6 -17 -2 -14 5 -15 3 -6 -6 9 -9
8 -17 -4 -35 -19 -30 -29 -24 -31 19 -1 32 1 35 28 33 17 0 30 -5 30 -9z m-4
-55 c-3 -3 -1 -11 6 -19 8 -11 7 -12 -6 -7 -9 3 -16 15 -16 26 0 11 5 16 11
13 6 -4 8 -10 5 -13z m-259 -24 c-3 -7 -5 -2 -5 12 0 14 2 19 5 13 2 -7 2 -19
0 -25z m252 -40 c-11 -9 -20 -19 -19 -22 2 -31 -4 -22 -10 14 -9 57 -5 64 25
43 24 -18 24 -18 4 -35z m15 -109 c-3 -5 5 -19 18 -30 16 -14 19 -22 11 -25
-17 -7 -16 -21 1 -27 10 -4 13 -1 9 9 -6 18 6 18 30 0 17 -13 17 -14 0 -21
-10 -5 -24 -7 -30 -6 -13 2 -8 -24 10 -46 7 -9 5 -13 -6 -13 -9 0 -18 13 -22
33 -4 17 -12 37 -17 44 -5 7 -8 20 -6 30 2 10 -5 26 -16 37 -14 14 -16 20 -5
27 16 9 32 1 23 -12z m109 -39 c10 -10 9 -11 -2 -5 -11 6 -13 4 -8 -8 3 -10 5
-17 2 -17 -7 0 -35 31 -35 40 0 12 28 6 43 -10z m-43 -11 c0 -6 -4 -7 -10 -4
-5 3 -10 11 -10 16 0 6 5 7 10 4 6 -3 10 -11 10 -16z m170 -2 c0 -2 -13 -16
-29 -31 -23 -22 -30 -24 -34 -12 -4 9 -1 13 6 10 7 -2 19 5 27 16 12 17 30 27
30 17z m-100 -11 c0 -3 -4 -8 -10 -11 -5 -3 -10 -1 -10 4 0 6 5 11 10 11 6 0
10 -2 10 -4z m-300 -124 c0 -8 -5 -10 -12 -6 -10 5 -10 4 -1 -6 10 -11 15 -11
29 1 12 9 15 10 10 2 -13 -22 -15 -53 -4 -53 6 0 8 -3 5 -6 -9 -9 -38 16 -31
27 3 5 1 9 -4 9 -5 0 -14 11 -20 24 -10 22 -9 25 9 23 10 -1 19 -7 19 -15z
m220 -57 c-7 -9 -15 -13 -19 -10 -3 3 1 10 9 15 21 14 24 12 10 -5z m-160 -5
c0 -5 -4 -10 -10 -10 -5 0 -10 5 -10 10 0 6 5 10 10 10 6 0 10 -4 10 -10z
m124 -8 c3 -5 -1 -9 -9 -9 -8 0 -12 4 -9 9 3 4 7 8 9 8 2 0 6 -4 9 -8z m-114
-47 c-7 -8 -17 -15 -23 -15 -6 0 -2 7 9 15 25 19 30 19 14 0z m100 10 c0 0
-16 -17 -37 -36 -20 -18 -33 -28 -29 -21 4 7 1 12 -8 12 -9 0 -16 7 -16 17 0
15 1 15 18 0 17 -16 19 -16 31 6 7 13 19 24 27 24 8 0 14 -1 14 -2z"/>
<path d="M13582 12271 c-10 -6 -10 -10 3 -21 8 -7 18 -10 22 -6 3 3 1 6 -6 6
-8 0 -11 7 -7 15 6 17 6 18 -12 6z"/>
<path d="M13544 12241 c4 -5 0 -11 -6 -14 -7 -3 -3 -4 9 -4 17 1 19 4 11 14
-12 15 -22 18 -14 4z"/>
<path d="M13770 12225 c-20 -24 -6 -27 20 -5 17 15 19 20 8 20 -9 0 -21 -7
-28 -15z"/>
<path d="M13455 12180 c-3 -5 -1 -10 4 -10 6 0 11 5 11 10 0 6 -2 10 -4 10 -3
0 -8 -4 -11 -10z"/>
<path d="M13535 12180 c-3 -5 -1 -10 4 -10 6 0 11 5 11 10 0 6 -2 10 -4 10 -3
0 -8 -4 -11 -10z"/>
<path d="M13286 12126 c7 -19 20 -21 30 -3 4 6 4 9 -1 5 -4 -4 -14 -3 -22 4
-11 8 -12 7 -7 -6z"/>
<path d="M13340 12101 c0 -6 4 -13 10 -16 6 -3 7 1 4 9 -7 18 -14 21 -14 7z"/>
<path d="M13268 12067 c-16 -6 -28 -14 -28 -19 0 -13 13 -9 40 12 28 22 27 23
-12 7z"/>
<path d="M13370 12066 c0 -2 7 -7 16 -10 8 -3 12 -2 9 4 -6 10 -25 14 -25 6z"/>
<path d="M13411 12057 c2 -1 13 -9 24 -17 19 -14 19 -14 6 3 -7 9 -18 17 -24
17 -6 0 -8 -1 -6 -3z"/>
<path d="M13270 12040 c0 -5 5 -10 10 -10 6 0 10 5 10 10 0 6 -4 10 -10 10 -5
0 -10 -4 -10 -10z"/>
<path d="M12945 11964 c-11 -8 -19 -22 -17 -30 2 -8 -2 -14 -8 -14 -5 0 -10
-5 -10 -11 0 -5 5 -7 10 -4 6 3 10 1 10 -4 0 -6 -4 -11 -10 -11 -5 0 -10 -7
-10 -17 0 -9 -3 -13 -7 -9 -11 11 -12 38 -2 58 13 23 6 23 -40 -4 -27 -15 -41
-32 -47 -55 -7 -26 -12 -31 -24 -23 -13 8 -12 11 5 24 11 9 17 16 12 16 -11 0
-87 -49 -87 -56 0 -4 6 -1 14 5 9 8 22 8 38 2 13 -5 38 -7 56 -5 33 4 38 -1
23 -25 -6 -9 -11 -10 -15 -2 -4 6 -12 11 -19 11 -6 0 -2 -6 9 -14 16 -13 22
-13 40 -1 18 12 23 11 38 -3 16 -16 17 -16 10 1 -3 9 -11 17 -16 17 -6 0 -8 6
-5 14 4 11 -3 14 -29 11 -39 -3 -47 4 -33 25 8 12 12 12 16 3 5 -15 23 -17 23
-4 0 5 -9 13 -20 16 -11 4 -18 11 -14 16 3 5 9 7 14 4 4 -3 10 2 14 10 3 8 11
15 18 15 9 0 9 -3 1 -11 -8 -8 -8 -18 -1 -35 14 -31 32 -30 46 1 6 14 18 25
27 25 8 0 15 5 15 11 0 6 -9 8 -22 4 -22 -6 -22 -6 -4 9 16 13 22 13 28 3 4
-6 8 -8 8 -3 0 5 6 4 13 -2 8 -7 18 -7 27 -2 10 7 11 10 3 10 -7 0 -13 5 -13
11 0 6 7 8 16 5 9 -3 12 -2 9 5 -4 6 -13 8 -20 5 -7 -2 -16 2 -19 10 -7 18
-26 17 -51 -2z m49 -9 c3 -9 0 -15 -9 -15 -8 0 -15 5 -15 12 0 9 -3 9 -12 0
-7 -7 -16 -12 -22 -12 -14 0 26 29 40 30 7 0 14 -7 18 -15z"/>
<path d="M12995 11894 c18 -13 35 -11 35 5 0 5 -12 9 -27 9 -25 0 -25 -1 -8
-14z"/>
<path d="M12970 11881 c0 -5 7 -12 16 -15 14 -5 15 -4 4 9 -14 17 -20 19 -20
6z"/>
<path d="M12807 11779 c7 -7 15 -10 18 -7 3 3 -2 9 -12 12 -14 6 -15 5 -6 -5z"/>
<path d="M9950 7220 c0 -5 5 -10 10 -10 6 0 10 5 10 10 0 6 -4 10 -10 10 -5 0
-10 -4 -10 -10z"/>
<path d="M10035 7093 c-4 -10 -9 -26 -10 -35 -1 -10 -9 -26 -19 -37 -9 -10
-16 -25 -14 -32 2 -10 -5 -13 -24 -11 -21 2 -26 -1 -22 -13 7 -18 9 -18 35 -5
23 13 49 2 28 -11 -10 -6 -7 -8 8 -6 14 1 19 5 13 12 -5 6 -5 17 0 25 5 8 6
18 3 23 -3 5 1 13 8 18 12 8 12 11 -1 20 -12 9 -11 10 6 6 20 -4 21 -2 13 26
-11 38 -15 42 -24 20z"/>
<path d="M9945 7030 c4 -6 11 -8 16 -5 14 9 11 15 -7 15 -8 0 -12 -5 -9 -10z"/>
<path d="M9950 7000 c0 -6 7 -10 15 -10 8 0 15 2 15 4 0 2 -7 6 -15 10 -8 3
-15 1 -15 -4z"/>
<path d="M9970 6940 c0 -5 5 -10 10 -10 6 0 9 -3 8 -7 -4 -22 15 -40 38 -35
26 5 32 27 10 35 -10 4 -13 1 -9 -9 9 -24 -13 -15 -27 11 -13 25 -30 33 -30
15z"/>
<path d="M9945 6930 c3 -5 8 -10 11 -10 2 0 4 5 4 10 0 6 -5 10 -11 10 -5 0
-7 -4 -4 -10z"/>
<path d="M9947 6891 c-3 -11 0 -22 7 -24 6 -3 11 6 11 19 0 29 -11 32 -18 5z"/>
<path d="M9986 6855 c-10 -8 -22 -12 -26 -10 -9 5 -6 -32 3 -41 4 -4 7 1 7 10
0 13 5 16 16 12 12 -4 15 -2 10 9 -3 8 -1 15 4 15 6 0 10 -4 10 -9 0 -9 48 -6
58 3 3 3 -7 6 -21 6 -15 0 -27 5 -27 10 0 14 -11 12 -34 -5z"/>
<path d="M9964 6711 c17 -17 36 -31 44 -31 10 0 9 5 -5 18 -10 9 -14 13 -7 9
7 -5 15 -3 20 4 4 8 3 9 -4 5 -7 -4 -12 -2 -12 4 0 7 -6 10 -12 7 -7 -2 -22 0
-33 6 -14 7 -12 1 9 -22z"/>
<path d="M10023 6634 c-15 -16 -16 -24 -4 -24 8 0 24 30 19 35 -2 2 -9 -3 -15
-11z"/>
<path d="M9960 6626 c0 -2 7 -6 15 -10 8 -3 15 -1 15 4 0 6 -7 10 -15 10 -8 0
-15 -2 -15 -4z"/>
<path d="M10053 6591 c10 -12 9 -14 -5 -8 -12 4 -15 2 -11 -9 3 -7 0 -14 -7
-14 -6 0 -8 -5 -5 -10 4 -6 1 -17 -5 -25 -9 -11 -9 -15 -1 -15 6 0 11 4 11 10
0 5 8 6 18 3 15 -6 15 -5 3 10 -11 14 -11 20 0 33 18 22 20 41 3 41 -11 0 -11
-3 -1 -16z"/>
<path d="M9986 6588 c3 -5 10 -6 15 -3 13 9 11 12 -6 12 -8 0 -12 -4 -9 -9z"/>
<path d="M9948 6553 c7 -3 16 -2 19 1 4 3 -2 6 -13 5 -11 0 -14 -3 -6 -6z"/>
<path d="M9973 6537 c-18 -5 -33 -14 -33 -18 0 -12 17 -11 25 1 3 6 12 10 18
10 7 0 2 -8 -11 -18 -16 -13 -21 -23 -16 -37 5 -13 4 -16 -4 -11 -7 4 -12 2
-12 -3 0 -16 16 -13 30 4 10 12 10 15 -1 15 -7 0 0 13 16 30 34 35 31 40 -12
27z"/>
<path d="M10050 6500 c0 -5 5 -10 10 -10 6 0 10 5 10 10 0 6 -4 10 -10 10 -5
0 -10 -4 -10 -10z"/>
<path d="M10022 6474 c-16 -18 -9 -30 20 -37 21 -6 21 -5 5 7 -10 8 -15 20
-11 30 8 20 3 20 -14 0z"/>
<path d="M9995 6420 c3 -5 8 -10 11 -10 2 0 4 5 4 10 0 6 -5 10 -11 10 -5 0
-7 -4 -4 -10z"/>
<path d="M9957 6400 c19 -20 25 -22 35 -11 11 11 10 13 -2 9 -8 -3 -24 2 -35
10 -16 13 -15 11 2 -8z"/>
<path d="M9790 6390 c0 -5 10 -15 23 -21 22 -12 22 -12 3 10 -21 23 -26 26
-26 11z"/>
<path d="M9850 6340 c0 -5 5 -10 10 -10 6 0 10 5 10 10 0 6 -4 10 -10 10 -5 0
-10 -4 -10 -10z"/>
<path d="M9760 6330 c0 -5 5 -10 11 -10 5 0 7 5 4 10 -3 6 -8 10 -11 10 -2 0
-4 -4 -4 -10z"/>
<path d="M9822 6331 c-11 -7 -11 -9 0 -14 9 -3 15 1 15 9 0 8 -1 14 -1 14 -1
0 -7 -4 -14 -9z"/>
<path d="M10010 6329 c0 -5 5 -7 10 -4 6 3 10 8 10 11 0 2 -4 4 -10 4 -5 0
-10 -5 -10 -11z"/>
<path d="M9927 6305 c3 -8 9 -12 14 -9 12 7 11 11 -5 17 -10 4 -13 1 -9 -8z"/>
<path d="M9895 6300 c3 -5 8 -10 11 -10 2 0 4 5 4 10 0 6 -5 10 -11 10 -5 0
-7 -4 -4 -10z"/>
<path d="M9960 6260 c-13 -8 -13 -10 2 -10 9 0 20 5 23 10 8 13 -5 13 -25 0z"/>
<path d="M10045 6189 c-11 -16 -1 -19 13 -3 7 8 8 14 3 14 -5 0 -13 -5 -16
-11z"/>
<path d="M10021 6151 c-17 -11 -6 -31 17 -30 15 1 15 2 -1 6 -14 4 -16 8 -6
19 13 16 10 18 -10 5z"/>
<path d="M10050 6101 c0 -6 4 -12 8 -15 5 -3 9 1 9 9 0 8 -4 15 -9 15 -4 0 -8
-4 -8 -9z"/>
<path d="M10050 6045 c0 -8 4 -15 10 -15 5 0 7 7 4 15 -4 8 -8 15 -10 15 -2 0
-4 -7 -4 -15z"/>
<path d="M10010 5941 c0 -9 30 -24 36 -18 2 1 -6 8 -16 15 -11 7 -20 8 -20 3z"/>
<path d="M9993 5894 c-3 -8 -1 -20 4 -25 7 -7 12 -5 17 6 4 11 2 14 -6 9 -8
-5 -9 -2 -5 9 3 10 4 17 1 17 -2 0 -7 -7 -11 -16z"/>
<path d="M10030 5890 c0 -5 5 -10 10 -10 6 0 10 5 10 10 0 6 -4 10 -10 10 -5
0 -10 -4 -10 -10z"/>
<path d="M10041 5869 c-12 -12 -19 -24 -16 -27 4 -4 12 1 19 10 7 10 16 15 19
11 4 -3 7 1 7 10 0 22 -2 21 -29 -4z"/>
<path d="M9973 5813 c9 -2 14 -9 11 -15 -4 -7 -2 -8 5 -4 15 10 4 26 -17 25
-15 -1 -15 -2 1 -6z"/>
<path d="M9980 5725 c-7 -9 -8 -15 -2 -15 5 0 12 7 16 15 3 8 4 15 2 15 -2 0
-9 -7 -16 -15z"/>
<path d="M10112 5721 c2 -7 7 -12 11 -12 12 1 9 15 -3 20 -7 2 -11 -2 -8 -8z"/>
<path d="M10080 5685 c0 -29 15 -33 29 -6 11 20 5 31 -16 31 -7 0 -13 -11 -13
-25z"/>
<path d="M10123 5675 c-8 -8 -9 -16 -3 -20 5 -3 7 -12 3 -20 -4 -11 -1 -13 11
-9 12 5 14 10 6 19 -6 7 -8 20 -4 29 7 19 3 20 -13 1z"/>
<path d="M9975 5660 c3 -5 12 -7 20 -3 21 7 19 13 -6 13 -11 0 -18 -4 -14 -10z"/>
<path d="M10080 5640 c0 -5 7 -7 15 -4 8 4 15 8 15 10 0 2 -7 4 -15 4 -8 0
-15 -4 -15 -10z"/>
<path d="M10051 5631 c-9 -6 -10 -11 -3 -15 6 -4 9 -13 6 -20 -3 -9 4 -12 26
-11 16 1 33 5 38 10 4 4 -2 5 -12 1 -16 -5 -17 -4 -6 9 17 21 6 30 -13 10 -16
-16 -34 -4 -22 15 8 12 4 12 -14 1z"/>
<path d="M10090 5559 c0 -5 5 -7 10 -4 6 3 10 8 10 11 0 2 -4 4 -10 4 -5 0
-10 -5 -10 -11z"/>
<path d="M10164 5531 c2 -24 9 -48 15 -54 8 -8 10 -2 5 23 -12 60 -25 80 -20
31z"/>
<path d="M10080 5462 c0 -16 -5 -20 -17 -16 -14 5 -15 4 -4 -4 11 -8 10 -11
-3 -19 -16 -9 -16 -11 -1 -23 9 -7 15 -9 13 -4 -5 15 30 57 41 49 6 -3 8 -12
4 -18 -4 -7 0 -6 10 2 9 7 14 18 11 23 -3 5 -9 7 -12 4 -3 -3 -14 1 -24 11
-17 15 -18 15 -18 -5z"/>
<path d="M10010 5445 c0 -8 4 -15 8 -15 5 0 9 7 9 15 0 8 -4 15 -9 15 -4 0 -8
-7 -8 -15z"/>
<path d="M10170 5451 c0 -5 6 -14 14 -20 12 -10 13 -8 9 8 -5 21 -23 30 -23
12z"/>
<path d="M10142 5424 c-14 -16 -5 -18 17 -5 7 5 9 11 5 14 -5 3 -15 -1 -22 -9z"/>
<path d="M13750 11346 c-332 -38 -636 -123 -951 -266 -381 -172 -755 -448
-1045 -771 -221 -246 -352 -436 -509 -741 l-81 -157 -104 47 -105 48 -1 57
c-2 85 -22 142 -67 193 -58 66 -125 97 -212 97 -111 0 -193 -51 -247 -153 -34
-66 -32 -176 4 -245 34 -65 63 -91 134 -120 l59 -24 5 -606 5 -607 42 -3 43
-3 2 610 3 611 46 13 c29 9 62 29 88 55 27 27 47 40 58 36 19 -6 206 -87 211
-91 1 -2 -10 -34 -24 -72 -227 -598 -291 -1237 -183 -1843 23 -130 62 -302 85
-376 51 -157 113 -326 166 -445 33 -74 67 -155 75 -180 9 -25 25 -54 37 -66
11 -11 60 -85 108 -165 49 -79 102 -163 119 -186 l32 -42 -101 -108 c-55 -59
-145 -152 -200 -206 l-99 -99 -49 17 c-61 20 -185 21 -242 1 -76 -27 -125 -70
-418 -373 -159 -164 -361 -372 -449 -463 -89 -91 -314 -325 -500 -520 -187
-195 -475 -494 -640 -665 -166 -170 -320 -336 -343 -368 -172 -232 -186 -568
-33 -804 93 -144 237 -255 393 -304 142 -45 322 -33 475 30 140 58 181 94 587
521 143 151 322 338 396 415 74 77 286 298 470 490 184 193 405 422 490 510
341 350 427 442 456 485 70 104 87 209 55 334 l-21 80 73 70 c40 39 130 131
199 203 l125 133 64 -48 c60 -45 119 -85 262 -176 73 -46 290 -155 399 -200
330 -137 615 -204 1006 -237 l142 -12 0 -228 0 -228 -74 -35 c-42 -20 -88 -52
-108 -74 l-35 -39 -398 199 -398 198 -19 -31 c-10 -16 -19 -34 -21 -38 -1 -5
179 -99 399 -209 l401 -201 5 -83 c3 -68 10 -93 33 -136 56 -102 141 -156 250
-156 89 0 159 30 214 89 64 70 84 118 85 208 l2 78 396 197 397 197 32 -34
c42 -44 91 -63 165 -63 68 -1 111 17 162 66 53 49 75 101 76 176 1 107 -63
196 -165 230 -91 31 -185 4 -258 -75 -46 -50 -66 -109 -58 -175 l5 -45 -393
-196 -393 -197 -43 44 c-25 25 -69 55 -106 71 l-63 27 0 181 c0 99 -3 203 -6
231 l-6 51 147 12 c174 14 420 52 537 81 416 106 797 291 1167 568 l113 85
201 -201 200 -200 -23 -54 c-18 -41 -23 -72 -24 -135 0 -74 3 -88 38 -158 44
-88 84 -131 931 -985 259 -261 632 -639 830 -839 528 -535 519 -526 596 -580
177 -124 406 -161 619 -100 109 31 183 74 271 157 100 94 160 184 201 303 31
89 32 102 32 234 0 193 -33 305 -132 445 -58 83 -2217 2255 -2306 2321 -50 37
-153 69 -220 69 -28 0 -81 -11 -119 -24 l-67 -23 -210 213 -210 213 57 89 c32
50 75 118 96 152 32 52 41 60 60 55 15 -4 18 -3 9 3 -11 7 -11 15 1 45 9 19
13 37 11 40 -3 2 15 45 40 94 112 224 227 592 281 905 97 555 34 1209 -171
1762 -24 66 -43 120 -41 121 3 3 164 74 199 88 25 10 31 8 60 -20 35 -33 77
-56 119 -66 16 -4 29 -16 33 -29 3 -13 6 -289 6 -615 l0 -592 40 2 40 1 2 610
3 609 53 17 c64 21 114 67 149 134 22 43 24 59 21 132 -3 77 -5 86 -43 140
-58 83 -125 118 -225 119 -112 0 -190 -47 -245 -147 -25 -45 -30 -64 -30 -126
l0 -73 -108 -50 c-60 -28 -110 -49 -112 -47 -1 2 -31 59 -66 128 -178 354
-370 621 -634 886 -230 230 -478 416 -750 561 -346 185 -629 279 -1035 344
-162 27 -587 35 -760 15z m540 -240 c194 -11 500 -76 725 -156 236 -83 553
-252 758 -403 235 -173 455 -396 654 -665 230 -310 395 -655 503 -1051 135
-495 146 -1049 30 -1539 -50 -216 -164 -542 -224 -648 -22 -37 -16 -18 24 74
17 41 29 80 26 88 -3 9 -1 12 4 9 6 -3 10 3 10 14 0 23 -16 27 -40 10 -12 -8
-9 -9 9 -4 21 6 22 5 10 -8 -10 -11 -18 -12 -27 -4 -9 7 -10 13 -2 21 18 18
11 26 -9 9 -11 -9 -17 -21 -14 -26 3 -6 1 -7 -5 -3 -7 4 -12 2 -12 -4 0 -5
-13 -24 -30 -42 -20 -21 -30 -26 -30 -15 0 13 -4 13 -25 4 -25 -12 -50 -61
-39 -78 3 -5 0 -9 -7 -9 -10 0 -10 -3 -1 -12 17 -17 15 -28 -4 -28 -9 0 -13 5
-9 13 4 6 -1 3 -9 -7 -9 -11 -16 -25 -16 -30 0 -6 4 -5 9 2 14 23 88 2 74 -20
-2 -5 0 -8 5 -8 5 0 9 -7 9 -15 0 -8 -4 -12 -9 -9 -4 3 -8 3 -8 0 0 -2 -3 -11
-6 -20 -9 -22 22 -21 35 2 14 23 14 6 1 -19 -7 -11 -7 -19 -1 -19 5 0 19 20
31 45 12 25 27 48 33 52 19 12 -103 -209 -179 -324 -41 -62 -79 -115 -84 -118
-5 -3 20 38 55 92 66 98 73 113 55 113 -5 0 -10 -7 -10 -15 0 -8 -5 -15 -11
-15 -6 0 -9 7 -5 15 8 23 -8 18 -38 -12 -15 -14 -24 -20 -21 -12 3 8 -4 20
-15 27 -11 7 -20 8 -20 3 0 -5 -9 -11 -21 -14 -14 -4 -18 -10 -13 -19 6 -10 3
-9 -10 1 -15 12 -19 12 -32 -1 -14 -14 -14 -16 0 -21 10 -4 13 -1 9 9 -3 7 -1
14 4 14 5 0 9 -14 8 -30 0 -24 -2 -27 -11 -16 -8 12 -13 13 -24 3 -10 -10 -12
-9 -6 3 9 18 -24 -19 -152 -175 -198 -240 -455 -459 -722 -616 -42 -24 -89
-52 -105 -62 -139 -83 -489 -218 -655 -252 -8 -2 -51 -12 -95 -23 -183 -46
-288 -57 -550 -56 -214 0 -268 3 -377 22 -70 12 -133 25 -140 27 -7 2 -24 6
-38 9 -51 9 -185 49 -197 58 -7 6 -13 8 -13 4 0 -3 -60 15 -132 40 -406 140
-843 435 -1125 757 -54 62 -103 118 -110 125 -7 7 -33 40 -58 73 -26 32 -48
59 -51 59 -3 0 -2 -4 1 -10 3 -5 1 -10 -5 -10 -6 0 -8 -5 -4 -12 4 -7 3 -8 -5
-4 -6 4 -9 11 -6 16 7 12 -25 21 -48 14 -19 -6 -37 9 -37 31 0 6 4 3 10 -5 17
-28 35 21 18 53 -5 10 -5 17 1 17 5 0 12 -6 14 -12 3 -7 6 -8 6 -3 0 6 -9 21
-20 35 -15 17 -19 19 -15 7 4 -12 2 -16 -5 -11 -8 4 -9 -1 -4 -17 4 -13 4 -21
0 -16 -5 4 -9 15 -10 25 0 9 -4 18 -8 20 -18 6 -26 1 -20 -15 5 -13 2 -12 -14
4 -28 28 -35 51 -15 49 9 0 18 8 20 19 2 16 1 17 -7 5 -5 -8 -13 -11 -17 -8
-3 4 1 14 10 23 15 15 17 14 22 -14 7 -34 22 -51 19 -23 -3 38 -17 62 -36 62
-11 0 -19 7 -19 16 0 8 5 12 10 9 6 -4 -13 41 -42 99 -28 57 -54 103 -57 101
-4 -2 -7 8 -7 21 -2 33 -24 58 -38 44 -13 -13 -39 -13 -31 0 4 6 12 7 18 3 7
-3 4 3 -6 14 -9 11 -14 23 -10 28 5 4 -2 3 -14 -4 -26 -13 -36 -14 -29 -2 4 5
-2 8 -11 6 -10 -2 -26 -4 -35 -4 -10 -1 -18 -6 -18 -12 0 -5 4 -8 8 -5 5 3 9
-1 9 -9 0 -20 -7 -19 -23 3 -19 24 -18 -2 2 -39 8 -17 14 -33 11 -35 -8 -8
-65 131 -106 261 -69 214 -105 371 -138 595 -25 176 -26 640 0 820 50 349 128
627 264 930 244 546 669 1031 1178 1345 419 259 895 406 1370 424 94 3 186 5
205 4 19 -1 78 -4 130 -7z m3288 -1418 c76 -70 65 -190 -21 -231 -102 -49
-207 14 -207 123 0 124 139 190 228 108z m-6827 17 c44 -23 69 -71 69 -130 0
-60 -17 -88 -70 -115 -70 -36 -145 -17 -186 45 -22 34 -23 115 0 149 39 60
124 83 187 51z m688 -2911 c-17 -21 -27 -17 -24 9 3 31 3 31 20 17 12 -10 13
-16 4 -26z m33 1 c-2 -14 -8 -25 -13 -25 -12 0 -11 7 1 31 14 26 18 24 12 -6z
m5263 5 c3 -5 1 -10 -4 -10 -6 0 -11 5 -11 10 0 6 2 10 4 10 3 0 8 -4 11 -10z
m-120 -90 c-3 -5 -1 -10 5 -10 8 0 8 -6 0 -20 -6 -11 -8 -26 -4 -33 5 -8 2 -7
-9 2 -18 14 -24 36 -7 26 6 -3 10 -2 10 4 0 5 -6 12 -12 14 -10 4 -9 8 2 16
19 13 23 14 15 1z m55 -4 c0 -2 -8 -10 -17 -17 -16 -13 -17 -12 -4 4 13 16 21
21 21 13z m-5236 -72 c3 -8 2 -12 -4 -9 -6 3 -10 10 -10 16 0 14 7 11 14 -7z
m86 -164 c6 -11 8 -20 6 -20 -3 0 -10 9 -16 20 -6 11 -8 20 -6 20 3 0 10 -9
16 -20z m86 -143 c3 -9 10 -14 16 -11 7 5 8 2 3 -6 -9 -15 -26 3 -51 55 l-15
30 20 -25 c11 -14 23 -33 27 -43z m24 53 c0 -5 -5 -10 -11 -10 -5 0 -7 5 -4
10 3 6 8 10 11 10 2 0 4 -4 4 -10z m36 -12 c-1 -16 -7 -22 -20 -20 -11 2 -15
-1 -11 -7 3 -6 2 -11 -3 -11 -6 0 -12 7 -16 15 -3 8 -2 14 2 14 19 -3 42 2 41
9 -2 11 0 22 5 22 2 0 3 -10 2 -22z m84 -32 c0 -3 -4 -8 -10 -11 -5 -3 -10 -1
-10 4 0 6 5 11 10 11 6 0 10 -2 10 -4z m4705 -6 c3 -5 1 -10 -5 -10 -6 0 -8
-5 -4 -12 4 -6 3 -8 -4 -4 -5 3 -12 0 -15 -6 -2 -7 -8 -9 -13 -5 -5 5 -1 13 9
18 9 6 15 14 12 20 -4 5 -2 9 4 9 5 0 13 -4 16 -10z m-4785 -30 c0 -5 -4 -10
-10 -10 -5 0 -10 5 -10 10 0 6 5 10 10 10 6 0 10 -4 10 -10z m-2 -72 c21 -35
24 -44 9 -26 -28 34 -63 93 -50 85 5 -3 24 -30 41 -59z m53 -75 c13 -16 12
-17 -3 -4 -10 7 -18 15 -18 17 0 8 8 3 21 -13z m4700 -30 c-24 -33 -69 -84
-60 -68 10 17 72 95 76 95 3 0 -5 -12 -16 -27z m-81 -106 c0 -2 -12 -14 -27
-28 l-28 -24 24 28 c23 25 31 32 31 24z m-60 -70 c0 -2 -12 -14 -27 -28 l-28
-24 24 28 c23 25 31 32 31 24z m473 -285 l197 -197 -145 -145 -145 -145 -193
190 c-107 105 -195 195 -195 202 -1 7 13 24 32 38 18 14 71 69 117 122 102
117 117 133 127 133 4 0 96 -89 205 -198z m-623 123 c-35 -36 -68 -65 -72 -65
-5 0 22 29 59 65 37 36 69 65 72 65 3 0 -24 -29 -59 -65z m-4291 -167 l134
-137 -22 -28 c-12 -15 -97 -103 -189 -196 l-166 -168 -143 143 -143 143 109
110 c60 60 146 148 190 193 45 46 84 82 88 80 5 -2 68 -65 142 -140z m4201 89
c0 -2 -12 -14 -27 -28 l-28 -24 24 28 c23 25 31 32 31 24z m-90 -81 c0 -2 -8
-10 -17 -17 -16 -13 -17 -12 -4 4 13 16 21 21 21 13z m1395 -206 c28 -14 163
-144 417 -403 207 -210 662 -670 1011 -1022 523 -528 633 -643 623 -655 -9
-12 -8 -13 4 -3 13 9 26 2 73 -44 31 -30 55 -58 52 -63 -3 -4 3 -14 13 -21 16
-13 16 -12 3 6 -7 11 8 -2 33 -29 26 -27 51 -57 57 -67 18 -34 1 -20 -32 26
-33 46 -54 59 -42 28 6 -16 5 -17 -13 -3 -10 8 -16 11 -12 6 4 -5 3 -17 -3
-28 -10 -18 -11 -19 -23 -2 -15 20 -36 11 -36 -14 0 -10 -7 -28 -16 -40 -12
-18 -24 -22 -51 -20 -31 3 -109 77 -796 763 -419 418 -539 536 -268 263 425
-428 492 -499 481 -513 -8 -10 -9 -15 -1 -15 6 0 11 5 11 11 0 6 13 0 29 -13
21 -16 28 -29 25 -43 -4 -16 -3 -17 5 -6 8 12 12 13 26 1 9 -7 14 -19 11 -27
-3 -8 -1 -11 5 -8 10 7 39 -11 39 -24 0 -4 -18 -7 -40 -7 -39 -1 -53 9 -27 19
7 3 6 6 -5 6 -23 1 -32 -17 -18 -34 9 -11 9 -15 1 -15 -6 0 -11 5 -11 11 0 5
-4 7 -10 4 -5 -3 -10 0 -10 9 0 17 -32 15 -38 -4 -3 -9 0 -10 9 -4 12 6 12 5
1 -8 -7 -8 -10 -23 -6 -31 5 -15 9 -15 34 -2 21 11 29 12 32 3 7 -21 41 0 35
22 -6 22 8 28 16 8 4 -10 8 -9 16 2 6 8 11 10 11 4 0 -6 -7 -17 -15 -24 -8 -7
-12 -17 -8 -23 3 -5 1 -7 -5 -4 -12 8 -42 -2 -42 -14 0 -16 65 -5 66 11 1 26
15 60 25 60 12 0 12 -1 -6 -43 -8 -19 -12 -36 -10 -39 6 -5 -43 -9 -108 -7
-15 0 -16 3 -7 14 7 8 16 12 21 9 5 -3 9 0 9 5 0 17 -17 13 -37 -8 -18 -19
-19 -19 -42 5 -13 14 -18 24 -10 24 7 0 9 3 5 7 -4 5 -13 1 -19 -7 -16 -20
-51 -26 -45 -8 3 7 12 12 22 10 9 -2 16 4 16 14 0 12 6 15 21 11 17 -5 18 -3
8 10 -8 9 -9 17 -3 21 20 13 41 82 25 82 -5 0 -12 -15 -15 -34 -4 -19 -13 -37
-21 -40 -9 -3 -14 -11 -13 -17 2 -6 -7 -15 -19 -20 -27 -10 -29 -4 -8 17 8 9
15 20 15 25 0 6 -7 3 -16 -5 -19 -20 -25 -20 -18 -1 4 8 1 15 -6 15 -6 0 -9
-4 -6 -8 2 -4 1 -14 -4 -22 -8 -12 -10 -12 -15 2 -4 11 2 26 16 40 12 13 18
17 14 10 -6 -11 -3 -12 14 -3 17 10 22 9 27 -4 3 -8 11 -15 17 -15 5 0 2 8 -7
19 -12 13 -15 27 -10 46 5 18 2 30 -7 36 -10 6 -11 9 -1 9 6 0 12 5 12 11 0 5
-4 8 -9 5 -5 -4 -11 0 -14 6 -2 7 -8 9 -13 5 -5 -4 -2 -12 6 -17 8 -6 11 -10
6 -10 -5 0 -3 -7 4 -15 10 -12 9 -15 -6 -16 -11 0 -14 -3 -6 -6 17 -7 15 -20
-4 -27 -10 -4 -24 2 -35 16 -19 21 -20 21 -34 2 -16 -21 -15 -39 3 -39 5 0 14
-3 18 -7 4 -5 -1 -8 -10 -8 -11 0 -16 -5 -13 -14 4 -9 -3 -13 -23 -12 -16 1
-28 6 -27 11 1 6 -4 9 -12 7 -22 -4 -43 18 -31 33 8 10 8 15 -1 21 -7 4 -9 3
-5 -4 3 -6 2 -13 -3 -17 -6 -3 -8 -13 -5 -23 4 -13 3 -14 -4 -4 -8 12 -25 18
-54 21 -21 2 -4 20 17 18 13 -1 24 3 24 8 0 6 -7 9 -15 7 -8 -2 -14 4 -14 12
0 8 -5 18 -11 21 -6 4 -9 0 -7 -11 2 -13 -2 -18 -14 -16 -13 2 -16 -2 -11 -15
8 -23 -1 -15 -17 16 -6 13 -7 21 -2 17 6 -3 14 -1 18 6 4 7 4 10 -1 6 -4 -4
-14 -3 -22 3 -10 9 -13 7 -13 -7 0 -17 -1 -17 -13 1 -9 12 -16 14 -21 7 -3 -6
2 -17 11 -24 10 -8 34 -32 53 -53 19 -22 7 -13 -27 19 -34 33 -60 63 -57 68 3
5 0 7 -8 6 -7 -2 -12 3 -10 10 1 6 -2 11 -7 10 -6 -2 -334 320 -730 716 -579
577 -719 722 -711 735 19 36 357 361 375 361 10 0 37 -9 60 -20z m-6168 -262
l173 -172 -168 -171 c-92 -93 -397 -404 -677 -690 -776 -790 -847 -861 -851
-849 -8 19 -43 4 -38 -14 3 -10 -1 -7 -7 5 -10 18 -15 20 -36 10 -13 -6 -22
-16 -19 -24 3 -7 -4 -18 -16 -24 -15 -8 -19 -8 -13 1 4 6 8 22 10 36 2 20 -1
23 -21 20 -16 -3 -21 0 -18 9 3 7 12 16 20 19 8 3 14 13 14 22 0 8 6 14 13 12
6 -3 12 -11 12 -19 0 -8 9 -13 20 -11 16 2 17 1 5 -7 -8 -5 -11 -13 -7 -18 5
-4 17 3 27 17 15 20 21 23 31 13 11 -11 10 -13 -4 -13 -9 0 -17 -4 -17 -10 0
-15 17 -12 36 8 17 16 18 16 11 0 -7 -20 1 -23 23 -7 12 8 12 12 2 16 -7 3
-21 14 -31 24 -16 17 -19 18 -31 4 -14 -16 -50 -21 -50 -6 0 5 9 13 20 16 11
3 20 11 20 16 0 6 -5 7 -10 4 -7 -4 -9 2 -5 18 6 22 4 24 -21 19 -22 -4 -26
-2 -21 11 4 10 2 14 -6 11 -7 -2 -13 -12 -13 -22 0 -14 7 -17 31 -14 l30 3
-25 -20 c-23 -18 -26 -18 -42 -4 -11 10 -18 12 -18 5 0 -7 -5 -12 -11 -12 -6
0 -9 6 -6 14 6 15 -9 16 -31 3 -7 -5 -9 -13 -6 -19 4 -6 -4 -19 -17 -30 -13
-10 -17 -16 -8 -12 10 3 20 0 24 -5 10 -17 25 -3 18 16 -5 13 -2 15 11 10 10
-4 15 -3 11 3 -3 6 3 10 14 10 18 0 20 -3 9 -19 -7 -11 -23 -25 -36 -32 -19
-11 -25 -11 -32 1 -9 14 -14 7 -11 -12 0 -5 -6 -8 -14 -8 -8 0 -15 6 -15 13 0
8 -4 7 -10 -3 -7 -11 -10 -11 -10 -2 0 14 -31 12 -42 -3 -5 -6 -11 -5 -17 3
-6 11 -11 10 -25 -3 -9 -9 -16 -11 -16 -5 0 11 35 53 110 131 25 26 81 85 125
131 44 47 -4 -1 -107 -105 -103 -104 -185 -193 -182 -198 3 -5 1 -8 -5 -7 -5
2 -74 -64 -153 -146 -127 -132 -147 -149 -176 -149 -58 0 -89 52 -62 104 13
24 2 25 -16 2 -12 -17 -13 -16 -14 5 0 13 -4 20 -10 17 -16 -10 -12 7 7 27 9
11 11 18 5 18 -7 0 -12 -4 -12 -10 0 -5 -6 -10 -13 -10 -7 0 -19 -9 -27 -20
-8 -11 -19 -20 -24 -20 -6 0 7 18 29 40 21 21 42 37 47 34 5 -3 7 -1 6 4 -2 5
32 46 75 90 42 45 77 78 77 74 0 -4 -14 -22 -31 -39 -16 -18 -26 -33 -22 -34
4 0 -1 -4 -12 -9 -13 -6 -15 -9 -5 -9 8 -1 28 13 44 29 16 17 31 28 34 25 3
-3 -3 -12 -14 -20 -10 -8 -14 -15 -8 -15 6 0 33 20 59 45 27 24 52 42 57 39
11 -7 38 27 32 38 -3 4 2 5 11 2 11 -5 16 -2 15 7 -4 26 0 39 11 39 8 0 7 -6
-1 -17 -16 -21 186 182 355 357 l120 125 -112 -110 c-83 -80 -113 -104 -113
-90 0 19 -1 19 -18 -1 -20 -25 -52 -38 -52 -22 0 7 -18 -5 -40 -27 -21 -21
-37 -42 -34 -47 3 -5 12 -4 20 3 8 6 17 9 21 6 3 -4 -2 -9 -11 -13 -9 -3 -16
-10 -16 -15 0 -6 10 -4 23 2 21 11 21 11 6 -7 -9 -10 -24 -29 -34 -41 -10 -12
-23 -19 -28 -16 -6 3 -7 2 -4 -4 4 -5 -7 -22 -22 -37 -17 -16 -31 -23 -35 -18
-3 6 5 19 19 30 14 11 25 23 25 27 0 4 -6 3 -13 -3 -8 -7 -18 -7 -27 -2 -11 6
-37 -14 -102 -79 -48 -49 -88 -86 -88 -83 0 3 62 69 138 147 75 77 288 298
472 490 184 193 405 422 490 510 85 88 299 310 475 494 176 184 334 342 350
352 17 11 45 19 64 19 31 0 51 -16 208 -172z m363 -501 c0 -2 -10 -12 -22 -23
l-23 -19 19 23 c18 21 26 27 26 19z m3890 -33 c109 -65 58 -244 -70 -244 -67
0 -122 60 -124 134 -2 94 112 158 194 110z m-3990 -79 c-24 -25 -46 -45 -49
-45 -3 0 15 20 39 45 24 25 46 45 49 45 3 0 -15 -20 -39 -45z m5660 -210 c19
-19 32 -35 29 -35 -3 0 -20 16 -39 35 -19 19 -32 35 -29 35 3 0 20 -16 39 -35z
m-5850 12 c0 -1 -48 -50 -107 -107 l-108 -105 105 108 c97 99 110 112 110 104z
m5911 -74 c13 -16 12 -17 -3 -4 -10 7 -18 15 -18 17 0 8 8 3 21 -13z m40 -40
c13 -16 12 -17 -3 -4 -17 13 -22 21 -14 21 2 0 10 -8 17 -17z m-3052 -188 c71
-36 103 -113 82 -195 -15 -59 -56 -97 -116 -106 -90 -13 -164 32 -180 111 -5
26 -4 26 11 -7 9 -21 21 -35 26 -32 7 4 6 9 -1 13 -6 4 -15 27 -20 52 -5 24
-9 36 -10 27 -1 -10 -5 -18 -10 -18 -12 0 6 79 25 108 19 29 88 61 132 62 18
0 46 -7 61 -15z m-3229 -38 c0 -1 -44 -45 -97 -97 l-98 -95 95 98 c88 90 100
102 100 94z m6561 -54 c13 -16 12 -17 -3 -4 -10 7 -18 15 -18 17 0 8 8 3 21
-13z m40 -40 c13 -16 12 -17 -3 -4 -10 7 -18 15 -18 17 0 8 8 3 21 -13z
m-6921 -236 c0 -1 -28 -29 -62 -62 l-63 -60 60 63 c55 58 65 67 65 59z m-1210
-31 c0 -3 -4 -8 -10 -11 -5 -3 -10 -1 -10 4 0 6 5 11 10 11 6 0 10 -2 10 -4z
m-30 -25 c0 -5 -7 -14 -15 -21 -12 -10 -15 -10 -15 2 0 8 3 18 7 21 9 10 23 9
23 -2z m-45 -11 c-3 -5 -12 -10 -18 -10 -7 0 -6 4 3 10 19 12 23 12 15 0z
m9378 -74 c4 -10 0 -14 -12 -13 -11 1 -17 7 -14 14 7 17 20 17 26 -1z m-178
-36 c3 -5 2 -10 -4 -10 -5 0 -13 5 -16 10 -3 6 -2 10 4 10 5 0 13 -4 16 -10z
m-9335 -35 c0 -2 -10 -10 -22 -16 -21 -11 -22 -11 -9 4 13 16 31 23 31 12z
m9470 -15 c0 -5 -2 -10 -4 -10 -3 0 -8 5 -11 10 -3 6 -1 10 4 10 6 0 11 -4 11
-10z m31 -33 c-13 -13 -26 -3 -16 12 3 6 11 8 17 5 6 -4 6 -10 -1 -17z m34 13
c3 -5 1 -10 -4 -10 -6 0 -11 5 -11 10 0 6 2 10 4 10 3 0 8 -4 11 -10z m-9575
-10 c0 -5 -5 -10 -11 -10 -5 0 -7 5 -4 10 3 6 8 10 11 10 2 0 4 -4 4 -10z m25
1 c3 -5 1 -12 -5 -16 -5 -3 -10 1 -10 9 0 18 6 21 15 7z m9420 -31 c21 -22 37
-40 34 -40 -3 0 -23 18 -44 40 -21 22 -37 40 -34 40 3 0 23 -18 44 -40z m325
30 c0 -5 -5 -10 -11 -10 -5 0 -7 5 -4 10 3 6 8 10 11 10 2 0 4 -4 4 -10z m213
-115 c77 -76 125 -130 121 -137 -4 -6 -3 -8 4 -4 12 7 105 -86 108 -109 1 -8
-2 -13 -7 -9 -5 3 -9 12 -9 20 0 8 -7 14 -16 14 -9 0 -12 -5 -8 -12 5 -8 1 -7
-10 2 -17 13 -17 14 1 21 17 7 14 9 -19 13 -7 1 -12 9 -12 19 1 9 -2 17 -7 17
-5 0 -9 -5 -9 -11 0 -7 -9 -9 -22 -6 -12 3 -29 2 -39 -4 -15 -7 -17 -6 -13 6
3 8 9 13 14 10 4 -2 12 7 19 21 14 31 14 37 -1 28 -6 -4 -8 -3 -5 3 8 12 -20
39 -30 29 -3 -3 -1 -6 5 -6 7 0 12 -5 12 -11 0 -8 -4 -8 -12 -1 -7 6 -17 10
-23 10 -5 0 -11 6 -13 14 -3 10 -2 10 6 -1 6 -9 12 -10 16 -2 4 6 -23 42 -60
81 -50 52 -70 67 -77 58 -6 -9 -7 -8 -3 4 5 17 -9 35 -17 21 -2 -5 -3 -3 -1 4
5 19 -8 24 -21 7 -11 -15 -12 -15 -12 0 0 9 4 16 9 16 5 0 6 5 3 10 -13 21 4
6 128 -115z m-403 97 c0 -4 -9 -8 -20 -9 -11 -1 -20 2 -20 8 0 5 9 9 20 9 11
0 20 -4 20 -8z m-9240 -28 c0 -8 -5 -12 -10 -9 -6 4 -8 11 -5 16 9 14 15 11
15 -7z m9306 -7 c-1 -11 -8 -23 -14 -25 -7 -2 -9 -9 -6 -14 4 -7 2 -8 -4 -4
-16 10 -15 36 1 37 10 0 10 2 0 6 -19 7 -15 19 7 20 15 1 19 -4 16 -20z
m-9206 -7 c-20 -13 -33 -13 -25 0 3 6 14 10 23 10 15 0 15 -2 2 -10z m720 6
c0 -2 -8 -10 -17 -17 -16 -13 -17 -12 -4 4 13 16 21 21 21 13z m8510 -32 c0
-8 -5 -12 -10 -9 -6 4 -8 11 -5 16 9 14 15 11 15 -7z m68 -10 c2 -14 1 -16 -6
-6 -5 8 -12 13 -16 13 -23 -3 -30 0 -16 9 20 13 34 7 38 -16z m47 16 c-3 -5
-12 -10 -18 -10 -7 0 -6 4 3 10 19 12 23 12 15 0z m43 -4 c-2 -1 -12 -8 -22
-16 -18 -14 -18 -14 -6 7 8 12 18 19 23 16 4 -3 7 -6 5 -7z m-9462 -85 c18 15
18 2 0 -16 -7 -8 -16 -11 -20 -8 -3 3 -12 0 -21 -7 -10 -8 -15 -9 -15 -1 0 6
5 11 12 11 6 0 8 3 5 7 -4 3 -1 13 6 21 10 13 12 13 15 -2 3 -14 7 -15 18 -5z
m84 9 c0 -5 -5 -10 -11 -10 -5 0 -7 5 -4 10 3 6 8 10 11 10 2 0 4 -4 4 -10z
m9520 6 c0 -3 -4 -8 -10 -11 -5 -3 -10 -1 -10 4 0 6 5 11 10 11 6 0 10 -2 10
-4z m-9460 -10 c0 -3 -4 -8 -10 -11 -5 -3 -10 -1 -10 4 0 6 5 11 10 11 6 0 10
-2 10 -4z m-423 -53 c1 -17 -2 -21 -7 -13 -7 11 -11 10 -25 -3 -9 -10 -13 -17
-8 -17 4 0 -4 -8 -20 -18 -15 -10 -24 -22 -20 -25 3 -4 -2 -7 -13 -8 -14 0
-15 -2 -4 -6 16 -7 27 -17 50 -48 14 -19 14 -19 -2 -6 -12 9 -18 10 -19 2 -1
-6 -3 -15 -4 -21 -1 -5 -3 -15 -4 -22 0 -6 -4 -8 -8 -5 -3 4 -18 0 -32 -10
-22 -14 -24 -14 -13 -1 9 11 10 18 2 23 -5 3 -10 0 -10 -7 0 -9 -3 -9 -10 2
-9 13 -10 13 -11 0 -1 -8 -1 -18 -1 -21 1 -4 -7 -14 -17 -23 -16 -15 -19 -15
-24 -2 -4 10 -1 13 9 9 9 -3 14 1 14 12 0 12 -5 15 -20 10 -11 -3 -20 -2 -20
2 0 14 65 74 73 68 4 -3 5 -2 2 2 -4 5 132 153 140 153 0 0 1 -12 2 -27z
m9903 17 c0 -5 -2 -10 -4 -10 -3 0 -8 5 -11 10 -3 6 -1 10 4 10 6 0 11 -4 11
-10z m-9620 -40 c0 -5 -5 -10 -11 -10 -5 0 -7 5 -4 10 3 6 8 10 11 10 2 0 4
-4 4 -10z m9698 -20 c4 -12 3 -13 -10 -3 -8 7 -18 10 -21 6 -4 -3 -7 -1 -7 6
0 17 32 10 38 -9z m-9098 6 c0 -2 -8 -10 -17 -17 -16 -13 -17 -12 -4 4 13 16
21 21 21 13z m-917 -29 c3 -8 -1 -14 -9 -14 -15 0 -18 9 -7 20 9 9 10 9 16 -6z
m10294 -19 c-3 -7 -5 -2 -5 12 0 14 2 19 5 13 2 -7 2 -19 0 -25z m-214 -22 c4
-10 1 -13 -9 -9 -15 6 -19 23 -5 23 5 0 11 -7 14 -14z m385 -31 c-3 -3 -9 2
-12 12 -6 14 -5 15 5 6 7 -7 10 -15 7 -18z m-10430 -50 c-3 -3 -9 2 -12 12 -6
14 -5 15 5 6 7 -7 10 -15 7 -18z m-518 1 c0 -2 -8 -10 -17 -17 -16 -13 -17
-12 -4 4 13 16 21 21 21 13z m300 -30 c0 -3 -4 -8 -10 -11 -5 -3 -10 -1 -10 4
0 6 5 11 10 11 6 0 10 -2 10 -4z m215 -6 c3 -5 1 -10 -4 -10 -6 0 -11 5 -11
10 0 6 2 10 4 10 3 0 8 -4 11 -10z m-569 -54 c-11 -30 -22 -50 -24 -46 -4 10
34 100 41 100 2 0 -5 -24 -17 -54z m598 28 c3 -8 2 -12 -4 -9 -6 3 -10 10 -10
16 0 14 7 11 14 -7z m10443 -6 c-3 -8 -6 -5 -6 6 -1 11 2 17 5 13 3 -3 4 -12
1 -19z m10 -125 c-3 -10 -5 -2 -5 17 0 19 2 27 5 18 2 -10 2 -26 0 -35z
m-11080 5 c-3 -8 -6 -5 -6 6 -1 11 2 17 5 13 3 -3 4 -12 1 -19z m-10 -100 c-3
-7 -5 -2 -5 12 0 14 2 19 5 13 2 -7 2 -19 0 -25z m10 -70 c-3 -8 -6 -5 -6 6
-1 11 2 17 5 13 3 -3 4 -12 1 -19z"/>
<path d="M13870 10844 c-592 -55 -1121 -290 -1575 -701 -118 -107 -121 -111
-237 -250 -334 -401 -546 -862 -642 -1393 -42 -229 -51 -582 -22 -830 33 -280
116 -595 219 -836 82 -190 247 -459 395 -642 153 -190 421 -435 619 -566 52
-35 70 -53 66 -65 -4 -12 -3 -13 5 -2 8 10 14 11 32 1 18 -10 20 -14 9 -22
-11 -8 -10 -9 4 -4 12 4 70 -21 160 -68 132 -69 281 -130 419 -172 74 -23 69
-29 -7 -9 -32 8 -61 13 -63 10 -8 -7 40 -55 49 -50 4 3 9 1 11 -5 1 -5 15 -11
31 -12 15 -1 27 -6 27 -10 0 -5 10 -2 23 7 21 13 66 13 90 -2 6 -3 7 -1 3 5
-3 6 -21 14 -39 18 -17 4 -27 9 -21 11 7 2 47 -5 90 -16 174 -44 296 -56 564
-56 241 0 356 10 509 41 25 5 32 4 27 -4 -4 -7 -1 -12 8 -12 9 0 13 6 10 14
-4 10 10 17 48 26 83 20 224 65 328 105 134 52 408 195 519 272 73 50 96 62
103 51 7 -10 8 -9 6 3 -2 11 40 53 117 117 66 55 158 138 204 185 47 47 88 84
93 81 5 -3 7 -1 6 4 -2 5 38 60 88 123 330 411 528 865 611 1399 14 91 18 176
18 405 0 255 -3 309 -24 445 -97 640 -389 1216 -832 1645 -148 143 -242 219
-409 330 -306 205 -689 353 -1060 410 -101 16 -478 28 -580 19z m499 -219
c208 -26 380 -71 594 -156 738 -293 1310 -956 1522 -1761 113 -432 124 -888
30 -1303 -9 -39 -41 -149 -72 -245 -92 -284 -259 -597 -434 -815 -95 -119
-281 -307 -389 -395 -353 -286 -800 -484 -1235 -546 -144 -21 -434 -23 -580
-5 -354 44 -752 192 -1051 391 -390 260 -684 596 -896 1025 -175 355 -262 702
-275 1090 -28 886 373 1745 1047 2244 156 115 250 172 415 252 239 115 535
204 756 228 141 14 434 12 568 -4z m-1088 -5352 c13 -16 12 -17 -3 -4 -10 7
-18 15 -18 17 0 8 8 3 21 -13z m109 -31 c0 -4 -9 -8 -19 -8 -11 0 -17 4 -15 8
3 4 12 8 20 8 8 0 14 -4 14 -8z"/>
<path d="M13970 10284 c-108 -39 -200 -142 -216 -243 l-7 -41 -81 -1 c-44 0
-88 -2 -96 -3 -8 -2 -123 -6 -255 -10 -132 -4 -261 -9 -287 -13 l-48 -6 0 -40
0 -39 163 6 c395 17 592 24 596 20 5 -5 42 -105 44 -121 1 -6 -124 -116 -278
-245 -154 -128 -316 -264 -360 -302 -44 -37 -85 -70 -91 -73 -6 -2 -33 10 -60
26 -27 17 -73 36 -101 43 l-53 13 -1 125 c0 69 -2 145 -3 170 -1 25 -3 78 -4
118 l-2 72 -34 0 -34 0 -4 -67 c-3 -38 -5 -146 -7 -242 -1 -96 -4 -177 -6
-181 -3 -4 -22 -10 -44 -14 -57 -9 -131 -63 -174 -128 -36 -54 -39 -57 -64
-47 -36 14 -439 129 -450 129 -10 0 -47 -70 -40 -76 1 -2 43 -14 92 -28 50
-13 146 -41 215 -61 69 -21 140 -42 158 -47 31 -9 32 -11 32 -59 0 -27 9 -77
21 -111 l21 -62 -43 -35 c-69 -58 -473 -385 -616 -499 l-133 -106 0 -54 c0
-42 3 -52 13 -45 130 99 513 406 755 606 38 31 73 57 78 57 5 0 26 -15 48 -33
l39 -33 -31 -85 c-49 -132 -164 -480 -160 -484 9 -8 70 -36 72 -33 2 3 43 120
148 429 l49 147 82 4 c188 10 315 134 325 316 3 57 -1 86 -19 137 l-23 65 21
15 c11 8 44 34 72 57 28 24 134 113 237 198 102 85 238 198 301 251 l116 97
47 -34 c116 -83 268 -81 396 6 l41 29 49 -43 c27 -23 135 -114 239 -201 105
-87 224 -189 265 -225 42 -36 101 -85 132 -109 l56 -42 -19 -45 c-11 -25 -23
-75 -26 -113 -16 -194 127 -350 329 -360 l77 -3 22 -67 c12 -36 58 -166 101
-288 l80 -222 34 16 c19 9 34 22 34 28 0 6 -39 123 -86 260 -47 138 -88 262
-91 276 -4 21 2 33 29 58 18 17 37 31 42 31 4 0 34 -22 65 -48 31 -26 76 -63
101 -82 25 -19 117 -93 205 -165 87 -71 182 -148 211 -170 160 -125 254 -195
259 -195 3 0 5 21 5 48 l0 47 -145 120 c-80 66 -194 158 -254 205 -60 47 -165
132 -235 189 -69 57 -132 109 -141 115 -13 10 -13 17 5 64 11 29 23 80 27 113
l6 59 111 34 c61 19 170 51 241 72 72 21 131 38 133 40 5 3 -27 62 -37 69 -9
5 -385 -98 -455 -125 -24 -9 -28 -6 -51 35 -15 24 -43 58 -63 76 -39 34 -126
79 -154 79 -17 0 -18 18 -18 245 l0 245 -42 0 -43 0 1 -226 c1 -125 -1 -234
-3 -244 -3 -11 -22 -21 -57 -29 -29 -6 -74 -26 -101 -45 l-49 -33 -116 98
c-63 53 -227 190 -365 304 -137 114 -254 211 -258 215 -5 4 1 29 12 55 12 26
21 54 21 63 0 13 28 14 238 8 130 -3 303 -9 385 -13 l147 -6 0 41 c0 22 -3 43
-7 45 -5 3 -136 8 -293 12 -157 4 -292 9 -300 11 -8 1 -50 3 -92 3 l-78 1 0
28 c0 72 -93 192 -185 240 -64 33 -187 41 -255 16z m196 -138 c144 -67 160
-272 29 -355 -82 -52 -163 -49 -242 8 -110 80 -103 255 14 333 21 14 45 28 53
31 35 13 98 5 146 -17z m-1247 -1054 c88 -54 120 -182 69 -274 -53 -93 -176
-135 -264 -90 -109 56 -153 172 -105 277 54 116 189 155 300 87z m2503 28
c165 -46 193 -282 45 -374 -69 -42 -131 -46 -202 -11 -70 34 -107 87 -113 161
-13 154 121 265 270 224z"/>
<path d="M12024 8062 c-47 -23 -103 -85 -119 -133 l-12 -34 -91 -3 -92 -3 0
-39 0 -39 92 -3 92 -3 10 -35 c6 -19 31 -56 57 -81 61 -62 130 -80 205 -55
151 50 208 207 125 343 -42 68 -85 94 -164 100 -47 3 -72 -1 -103 -15z m136
-117 c35 -18 50 -43 50 -85 0 -107 -124 -150 -192 -66 -32 39 -15 129 29 155
26 15 80 13 113 -4z"/>
<path d="M15981 8065 c-55 -17 -97 -57 -127 -120 -34 -72 -32 -136 6 -202 36
-62 85 -98 157 -114 45 -10 59 -10 100 6 62 24 126 84 143 135 l13 40 89 0 88
0 0 40 c0 25 -5 40 -12 41 -7 0 -46 1 -87 2 l-74 2 -12 34 c-16 49 -72 111
-119 132 -48 22 -104 23 -165 4z m157 -140 c24 -29 29 -82 11 -118 -38 -74
-135 -76 -179 -5 -68 108 84 219 168 123z"/>
<path d="M12493 7687 c-18 -6 -33 -17 -33 -25 0 -7 43 -139 95 -291 52 -153
95 -281 95 -283 0 -3 -18 -19 -40 -37 l-40 -32 -72 60 c-150 123 -433 348
-492 390 -34 24 -101 76 -151 116 -122 98 -115 95 -115 33 l0 -53 183 -145
c100 -81 273 -217 385 -304 111 -88 202 -162 202 -166 0 -4 -7 -25 -17 -46 -9
-22 -19 -70 -22 -109 l-6 -70 -164 -55 c-91 -31 -166 -61 -168 -67 -2 -6 7
-23 20 -38 l23 -28 155 52 154 51 20 -27 c66 -92 144 -150 223 -168 l32 -7 0
-158 0 -158 26 -5 c18 -3 33 2 46 15 19 19 20 29 14 162 l-7 141 62 18 c64 19
102 40 150 84 l27 25 173 -112 c96 -62 252 -162 347 -223 151 -97 172 -114
167 -131 -4 -12 -9 -38 -12 -58 l-5 -38 -297 -1 c-271 -1 -388 -3 -448 -7 -20
-2 -23 -8 -23 -42 0 -25 5 -40 13 -40 6 0 180 0 384 0 l373 0 6 -27 c27 -111
125 -211 232 -238 l47 -12 3 -62 3 -61 44 0 45 0 0 65 c0 57 2 65 19 65 27 0
89 28 139 62 51 35 98 104 114 166 l10 42 385 0 384 0 -3 37 c-3 30 -9 39 -28
44 -14 4 -186 7 -382 8 l-358 1 0 34 c0 19 -5 47 -11 63 -7 18 -7 29 0 31 5 2
99 60 208 129 109 70 263 166 342 215 l144 88 42 -39 c38 -35 135 -81 171 -81
14 0 16 -16 13 -107 -1 -60 -1 -132 -1 -160 l2 -53 40 0 40 0 0 159 0 159 49
12 c74 18 134 60 180 129 23 34 45 61 50 61 4 0 74 -22 154 -50 80 -27 150
-50 154 -50 14 0 44 63 35 72 -4 4 -80 32 -168 61 l-159 54 -2 53 c-1 29 -11
80 -23 113 -12 32 -18 62 -13 67 4 4 71 56 148 115 173 134 562 446 593 475
17 16 22 32 22 71 0 38 -3 48 -12 43 -24 -15 -363 -281 -588 -461 l-224 -181
-44 31 c-27 20 -41 37 -38 47 2 8 47 138 100 289 53 151 95 275 94 276 -2 1
-18 10 -37 20 -28 14 -35 14 -42 3 -11 -16 -39 -97 -129 -364 l-72 -211 -77 0
c-64 0 -87 -5 -133 -28 -73 -35 -131 -93 -165 -164 -24 -48 -27 -69 -28 -146
0 -49 3 -101 8 -115 8 -28 32 -11 -333 -240 -107 -68 -232 -147 -277 -177
l-83 -55 -43 38 c-93 82 -239 103 -352 51 -33 -16 -74 -42 -92 -59 l-32 -31
-33 20 c-18 11 -137 87 -264 169 -127 82 -270 174 -317 204 -63 39 -85 59 -81
70 3 8 10 45 16 81 18 117 -31 238 -125 308 -70 53 -98 63 -196 70 l-83 6 -50
140 c-27 77 -73 209 -101 292 -29 84 -54 152 -57 151 -3 0 -20 -6 -37 -11z
m395 -722 c51 -22 81 -52 108 -110 27 -57 29 -77 12 -142 -28 -113 -180 -179
-286 -124 -93 48 -136 136 -114 232 7 29 23 67 37 85 51 66 160 93 243 59z
m2589 -21 c129 -104 108 -308 -38 -359 -147 -52 -288 39 -289 188 0 129 88
211 222 205 57 -3 72 -8 105 -34z m-1290 -796 c69 -42 110 -137 92 -215 -10
-49 -50 -104 -96 -134 -45 -30 -50 -22 -6 10 42 31 83 77 83 94 0 6 -3 7 -7 4
-3 -4 -12 -2 -20 5 -11 8 -12 7 -7 -6 3 -9 1 -16 -6 -16 -6 0 -8 -4 -5 -10 3
-6 -1 -7 -9 -4 -10 4 -18 -1 -22 -11 -4 -9 -13 -14 -23 -11 -11 4 -10 1 4 -10
20 -16 20 -16 -2 -9 -13 3 -28 3 -35 -1 -16 -10 -48 -13 -43 -3 3 4 -2 10 -11
13 -8 3 -13 2 -10 -2 2 -4 0 -14 -6 -22 -8 -13 -9 -13 -5 1 3 9 1 22 -3 30 -7
11 -10 10 -16 -4 -3 -9 -10 -14 -15 -11 -5 3 -6 11 -2 17 3 7 -4 3 -17 -8
l-23 -20 7 23 c5 13 3 22 -3 22 -6 0 -11 -5 -11 -11 0 -8 -5 -7 -15 1 -27 22
-30 1 -4 -28 l24 -27 -29 25 c-37 33 -66 95 -66 145 0 150 180 251 307 173z
m-37 -328 c0 -5 -4 -10 -10 -10 -5 0 -10 5 -10 10 0 6 5 10 10 10 6 0 10 -4
10 -10z m-32 -47 c-10 -2 -26 -2 -35 0 -10 3 -2 5 17 5 19 0 27 -2 18 -5z"/>
<path d="M13920 5881 c0 -4 11 -6 25 -3 14 2 25 6 25 8 0 2 -11 4 -25 4 -14 0
-25 -4 -25 -9z"/>
<path d="M14116 5855 c-9 -26 -7 -32 5 -12 6 10 9 21 6 23 -2 3 -7 -2 -11 -11z"/>
<path d="M11217 7383 c-4 -3 -7 -11 -7 -17 0 -6 5 -5 12 2 6 6 9 14 7 17 -3 3
-9 2 -12 -2z"/>
<path d="M11217 7269 c7 -9 10 -19 6 -22 -3 -4 1 -7 10 -7 10 0 17 8 17 17 0
9 -3 13 -7 10 -3 -4 -13 -1 -22 6 -14 10 -14 10 -4 -4z"/>
<path d="M16701 6879 c8 -5 9 -9 3 -9 -10 0 -14 -12 -29 -78 -2 -6 1 -10 6 -6
5 3 9 13 9 24 0 10 7 21 16 24 8 3 12 10 9 16 -3 5 -2 10 3 10 24 0 18 25 -6
27 -18 1 -21 -1 -11 -8z"/>
<path d="M11415 6860 c-3 -5 -1 -10 4 -10 6 0 11 5 11 10 0 6 -2 10 -4 10 -3
0 -8 -4 -11 -10z"/>
<path d="M16620 6785 c-9 -10 -9 -15 -1 -15 6 0 11 5 11 11 0 6 7 9 15 5 8 -3
15 -1 15 4 0 15 -26 12 -40 -5z"/>
<path d="M16595 6590 c3 -5 8 -10 11 -10 2 0 4 5 4 10 0 6 -5 10 -11 10 -5 0
-7 -4 -4 -10z"/>
<path d="M16595 6560 c-3 -5 -1 -10 4 -10 6 0 11 5 11 10 0 6 -2 10 -4 10 -3
0 -8 -4 -11 -10z"/>
<path d="M16550 6546 c0 -2 9 -6 20 -9 11 -3 18 -1 14 4 -5 9 -34 13 -34 5z"/>
<path d="M16624 6498 c2 -13 -1 -28 -6 -35 -6 -7 -8 -17 -6 -22 1 -5 10 5 19
23 14 26 14 33 3 44 -12 11 -13 9 -10 -10z"/>
<path d="M16585 6410 c3 -5 8 -10 11 -10 2 0 4 5 4 10 0 6 -5 10 -11 10 -5 0
-7 -4 -4 -10z"/>
<path d="M16570 6379 c0 -5 5 -7 10 -4 6 3 10 8 10 11 0 2 -4 4 -10 4 -5 0
-10 -5 -10 -11z"/>
<path d="M16460 6365 c0 -7 30 -13 34 -7 3 4 -4 9 -15 9 -10 1 -19 0 -19 -2z"/>
<path d="M11792 6315 c12 -14 23 -25 25 -25 2 0 -4 11 -13 25 -9 14 -20 25
-25 25 -5 0 1 -11 13 -25z"/>
<path d="M16161 6190 c-17 -22 -29 -40 -26 -40 9 0 57 50 48 50 -4 0 -1 4 7
10 8 5 12 11 9 14 -3 3 -20 -12 -38 -34z"/>
<path d="M16114 6129 c-3 -6 -2 -15 3 -20 5 -5 9 -1 9 11 0 23 -2 24 -12 9z"/>
<path d="M16082 6098 c-7 -7 -12 -16 -12 -21 0 -5 7 -1 16 8 9 9 14 18 12 20
-2 3 -10 -1 -16 -7z"/>
<path d="M15683 5720 c-24 -22 -28 -30 -17 -34 8 -3 13 -2 10 2 -6 10 30 43
38 35 3 -4 6 1 6 10 0 21 1 22 -37 -13z"/>
<path d="M15564 5635 c-27 -19 -62 -42 -79 -51 -51 -28 -80 -54 -61 -54 9 0
16 5 16 10 0 6 9 10 20 10 11 0 20 4 20 8 0 15 43 28 80 26 19 -1 27 0 18 3
-26 6 -22 18 13 48 48 40 28 40 -27 0z"/>
<path d="M15585 5621 c-3 -5 -1 -12 4 -15 5 -3 11 1 15 9 6 16 -9 21 -19 6z"/>
<path d="M12626 5602 c15 -13 19 -23 13 -34 -5 -10 -4 -15 5 -15 9 0 12 7 8
15 -4 11 -1 14 11 9 29 -11 19 0 -20 22 -31 17 -34 18 -17 3z"/>
<path d="M15500 5555 c-7 -8 -9 -15 -6 -15 4 0 14 7 22 15 9 8 11 15 6 15 -5
0 -15 -7 -22 -15z"/>
<path d="M14958 5313 c7 -3 16 -2 19 1 4 3 -2 6 -13 5 -11 0 -14 -3 -6 -6z"/>
<path d="M16731 5279 c-54 -59 -66 -67 -83 -58 -17 9 -18 8 -6 -10 12 -20 16
-18 87 54 42 41 73 76 71 78 -3 2 -34 -27 -69 -64z"/>
<path d="M11515 5190 c32 -36 64 -71 70 -78 9 -10 26 4 80 65 l68 78 -59 -56
c-34 -33 -65 -55 -74 -52 -13 4 -13 3 0 -6 8 -5 11 -13 7 -17 -4 -5 -40 23
-79 62 l-72 69 59 -65z"/>
<path d="M17410 5026 c0 -2 8 -10 18 -17 15 -13 16 -12 3 4 -13 16 -21 21 -21
13z"/>
<path d="M17570 4866 c0 -2 8 -10 18 -17 15 -13 16 -12 3 4 -13 16 -21 21 -21
13z"/>
<path d="M17740 4695 c52 -52 97 -95 100 -95 2 0 -38 43 -90 95 -52 52 -97 95
-100 95 -2 0 38 -43 90 -95z"/>
<path d="M18450 4196 c0 -2 8 -10 18 -17 15 -13 16 -12 3 4 -13 16 -21 21 -21
13z"/>
<path d="M19010 3635 c245 -247 447 -452 449 -455 2 -3 0 2 -4 10 -5 8 -34 41
-64 74 -31 32 -55 64 -55 71 1 8 -4 11 -10 9 -14 -5 -83 63 -73 72 4 4 17 -1
29 -12 16 -13 19 -14 10 -2 -10 13 -10 18 -1 24 7 4 15 2 17 -4 2 -7 8 -12 13
-12 6 0 -5 18 -22 40 -37 46 -47 50 -45 18 1 -16 7 -22 19 -20 9 2 17 -1 17
-5 0 -5 -14 -9 -31 -9 -17 -1 -28 1 -23 5 12 8 14 41 3 42 -5 1 -15 2 -21 3
-7 0 -13 6 -13 13 0 20 -11 23 -12 3 -1 -11 7 -22 18 -25 10 -4 19 -11 19 -16
0 -23 -28 0 -150 121 -53 52 -190 187 -305 300 -116 112 -10 2 235 -245z"/>
<path d="M17990 3990 c0 -5 5 -10 10 -10 6 0 10 5 10 10 0 6 -4 10 -10 10 -5
0 -10 -4 -10 -10z"/>
<path d="M18020 3960 c0 -5 5 -10 11 -10 5 0 7 5 4 10 -3 6 -8 10 -11 10 -2 0
-4 -4 -4 -10z"/>
<path d="M18090 3902 c0 -5 12 -19 27 -33 l26 -24 -23 33 c-25 33 -30 38 -30
24z"/>
<path d="M18150 3830 c0 -5 5 -10 11 -10 5 0 7 5 4 10 -3 6 -8 10 -11 10 -2 0
-4 -4 -4 -10z"/>
<path d="M18198 3780 c32 -30 52 -38 52 -20 0 6 -9 10 -21 10 -13 0 -18 4 -13
12 4 6 3 8 -3 5 -6 -4 -13 0 -17 8 -3 8 -11 15 -17 15 -7 0 2 -13 19 -30z"/>
<path d="M18317 3693 c-10 -10 -8 -33 2 -33 6 0 9 9 8 20 -1 23 -1 22 -10 13z"/>
<path d="M19040 3696 c0 -2 8 -10 18 -17 15 -13 16 -12 3 4 -13 16 -21 21 -21
13z"/>
<path d="M18570 3660 c0 -5 5 -10 11 -10 5 0 7 5 4 10 -3 6 -8 10 -11 10 -2 0
-4 -4 -4 -10z"/>
<path d="M18776 3605 c-3 -8 -1 -15 5 -15 12 0 8 -32 -5 -41 -10 -8 1 -29 15
-29 5 0 7 10 5 23 -2 12 1 30 6 41 8 14 7 17 -3 11 -9 -6 -11 -3 -6 8 3 10 2
17 -2 17 -5 0 -11 -7 -15 -15z"/>
<path d="M18570 3584 c6 -6 8 -13 5 -16 -3 -2 1 -5 8 -5 7 0 13 8 13 17 0 8
-8 16 -18 16 -11 0 -14 -4 -8 -12z"/>
<path d="M18623 3529 c-9 -9 -8 -15 3 -27 19 -19 27 -11 16 17 -6 16 -10 19
-19 10z"/>
<path d="M19217 3514 c14 -14 28 -23 30 -20 6 6 -37 45 -49 46 -4 0 4 -12 19
-26z"/>
<path d="M18848 3513 c7 -3 16 -2 19 1 4 3 -2 6 -13 5 -11 0 -14 -3 -6 -6z"/>
<path d="M19310 3390 c0 -5 5 -10 11 -10 5 0 7 5 4 10 -3 6 -8 10 -11 10 -2 0
-4 -4 -4 -10z"/>
<path d="M19346 3385 c4 -8 11 -15 16 -15 6 0 5 6 -2 15 -7 8 -14 15 -16 15
-2 0 -1 -7 2 -15z"/>
<path d="M19503 3192 c-8 -5 -8 -12 2 -25 12 -17 13 -16 11 7 0 15 -1 26 -1
26 0 0 -5 -4 -12 -8z"/>
<path d="M10249 4523 c-13 -16 -12 -17 4 -4 16 13 21 21 13 21 -2 0 -10 -8
-17 -17z"/>
<path d="M10185 4458 l-40 -43 43 40 c23 21 42 40 42 42 0 8 -9 0 -45 -39z"/>
<path d="M9772 4037 c-72 -73 -132 -135 -132 -139 0 -4 58 52 129 125 71 73
133 135 137 140 4 4 5 7 3 7 -2 0 -64 -60 -137 -133z"/>
<path d="M9985 4038 l-80 -83 83 80 c76 74 87 85 79 85 -1 0 -38 -37 -82 -82z"/>
<path d="M9750 3793 l-95 -98 98 95 c90 88 102 100 94 100 -1 0 -45 -44 -97
-97z"/>
<path d="M9345 3680 c-23 -24 -25 -30 -12 -30 9 0 17 4 17 9 0 5 7 17 16 26 9
9 14 18 12 20 -2 3 -17 -9 -33 -25z"/>
<path d="M9230 3555 c0 -9 -4 -13 -10 -10 -5 3 -10 1 -10 -4 0 -15 15 -14 29
3 8 10 9 16 1 21 -5 3 -10 -1 -10 -10z"/>
<path d="M9181 3513 c-18 -20 -4 -31 15 -11 9 9 12 18 7 21 -4 3 -14 -2 -22
-10z"/>
<path d="M9512 3485 c15 -16 20 -17 30 -6 11 11 10 13 0 7 -7 -4 -21 -2 -30 5
-15 12 -15 11 0 -6z"/>
<path d="M9836 3487 c3 -10 9 -15 12 -12 3 3 0 11 -7 18 -10 9 -11 8 -5 -6z"/>
<path d="M9581 3459 c-8 -22 -7 -29 1 -27 6 2 12 16 14 31 4 35 -2 34 -15 -4z"/>
<path d="M9447 3445 c-17 -21 -24 -36 -17 -40 6 -4 9 -2 8 3 -2 5 12 24 29 41
18 17 27 31 20 30 -6 0 -25 -16 -40 -34z"/>
<path d="M9655 3446 c15 -35 15 -36 -6 -36 -14 0 -19 5 -16 14 4 10 1 13 -8
10 -7 -3 -13 -14 -12 -25 1 -14 6 -17 21 -13 14 5 18 3 13 -9 -4 -11 0 -15 14
-14 12 1 18 6 14 15 -3 8 0 22 7 30 10 12 10 14 1 8 -9 -5 -13 -1 -13 12 0 11
-7 25 -15 32 -13 11 -13 8 0 -24z"/>
<path d="M9706 3472 c-3 -5 1 -9 9 -9 8 0 12 4 9 9 -3 4 -7 8 -9 8 -2 0 -6 -4
-9 -8z"/>
<path d="M9815 3461 c-3 -6 -11 -9 -16 -6 -5 3 -6 -1 -3 -9 5 -14 8 -14 21 0
9 8 13 17 10 20 -3 3 -8 0 -12 -5z"/>
<path d="M9740 3425 c-6 -8 -9 -19 -5 -24 3 -7 0 -8 -9 -5 -9 3 -13 10 -10 16
3 5 -3 4 -14 -3 -20 -12 -20 -39 0 -39 6 0 7 7 4 16 -6 15 -4 15 10 3 14 -12
14 -14 0 -25 -20 -14 -20 -24 -1 -24 8 0 15 6 15 13 0 6 14 23 30 36 17 13 30
31 30 40 -1 11 -5 9 -14 -8 -8 -15 -16 -20 -20 -12 -4 6 -2 11 3 11 6 0 11 5
11 10 0 15 -16 12 -30 -5z"/>
<path d="M9496 3421 c-3 -5 1 -11 9 -15 8 -3 15 -1 15 4 0 13 -18 22 -24 11z"/>
<path d="M9410 3380 c6 -11 15 -20 20 -20 14 0 1 28 -16 34 -12 4 -12 2 -4
-14z"/>
<path d="M9660 3356 c0 -8 31 -36 41 -36 5 0 1 9 -8 20 -16 18 -33 26 -33 16z"/>
<path d="M9020 3263 c-23 -26 -47 -46 -54 -45 -6 2 -8 0 -3 -4 4 -4 -16 -33
-45 -63 -29 -31 -6 -10 52 46 57 56 101 105 98 108 -3 3 -25 -16 -48 -42z"/>
<path d="M14221 3884 c0 -11 3 -14 6 -6 3 7 2 16 -1 19 -3 4 -6 -2 -5 -13z"/>
<path d="M14192 3825 c4 -4 3 -14 -3 -22 -7 -8 -8 -13 -1 -13 15 0 23 28 9 36
-7 4 -9 4 -5 -1z"/>
<path d="M13970 3800 c0 -15 48 -43 64 -37 8 3 17 2 20 -4 2 -5 3 -4 2 3 -1 7
-9 13 -17 14 -34 2 -40 5 -35 13 3 5 -1 12 -10 15 -21 8 -24 8 -24 -4z"/>
<path d="M14160 3780 c0 -5 5 -10 11 -10 5 0 7 5 4 10 -3 6 -8 10 -11 10 -2 0
-4 -4 -4 -10z"/>
<path d="M14100 3768 c0 -4 7 -8 15 -8 8 0 15 4 15 8 0 5 -7 9 -15 9 -8 0 -15
-4 -15 -9z"/>
<path d="M14075 3760 c-3 -5 -1 -10 4 -10 6 0 11 5 11 10 0 6 -2 10 -4 10 -3
0 -8 -4 -11 -10z"/>
<path d="M9110 3089 c0 -5 5 -7 10 -4 6 3 10 -3 10 -14 0 -24 15 -28 24 -6 3
8 -3 19 -14 25 -24 13 -30 13 -30 -1z"/>
<path d="M9110 3030 c0 -5 5 -10 11 -10 5 0 7 5 4 10 -3 6 -8 10 -11 10 -2 0
-4 -4 -4 -10z"/>
<path d="M10630 6990 c0 -563 -1 -601 -17 -606 -130 -41 -200 -128 -211 -260
-4 -51 0 -71 20 -116 63 -136 199 -198 342 -153 117 37 177 119 185 254 l6 84
100 46 c55 25 102 46 104 48 6 4 -20 61 -33 72 -7 6 -46 -7 -114 -40 l-104
-48 -24 28 c-21 25 -101 72 -146 85 -17 5 -18 43 -18 606 l0 600 -45 0 -45 0
0 -600z m130 -760 c32 -23 60 -76 60 -114 0 -44 -27 -94 -62 -116 -52 -32
-183 -22 -162 12 4 7 3 8 -4 4 -20 -12 -46 43 -46 98 -2 117 120 183 214 116z"/>
<path d="M17441 6988 l-1 -602 -44 -13 c-25 -8 -65 -32 -92 -56 l-48 -44 -101
48 c-55 27 -103 49 -107 49 -9 0 -38 -54 -38 -70 0 -5 47 -34 105 -62 l105
-53 0 -70 c0 -167 128 -286 294 -273 112 9 194 75 237 187 26 69 21 132 -16
207 -35 72 -97 120 -187 148 -17 5 -18 43 -18 606 l0 600 -44 0 -44 0 -1 -602z
m123 -756 c63 -37 84 -132 43 -193 -29 -43 -68 -62 -124 -61 -154 4 -185 224
-38 274 28 9 84 0 119 -20z"/>
<path d="M9333 5088 c2 -15 -1 -29 -7 -32 -6 -2 -3 -5 7 -5 9 -1 17 -9 18 -18
0 -10 3 -13 5 -7 2 5 -3 28 -11 50 -11 29 -14 32 -12 12z"/>
<path d="M9340 5000 c0 -5 5 -10 11 -10 5 0 7 5 4 10 -3 6 -8 10 -11 10 -2 0
-4 -4 -4 -10z"/>
<path d="M9370 4972 c0 -10 3 -22 8 -26 4 -4 7 -23 7 -42 0 -27 -3 -33 -15
-29 -11 5 -12 3 -3 -6 12 -12 37 -3 28 11 -3 5 -1 11 5 15 5 3 10 0 10 -9 0
-8 6 -17 13 -19 9 -4 9 -6 0 -6 -7 -1 -10 -8 -6 -18 5 -12 2 -15 -10 -10 -9 3
-17 4 -17 1 0 -3 14 -10 31 -16 21 -7 28 -15 24 -25 -3 -10 -1 -13 9 -10 8 3
17 1 19 -6 2 -7 7 -9 11 -5 11 9 -24 59 -37 51 -5 -3 -7 -1 -3 5 3 6 -12 45
-34 87 -22 42 -40 67 -40 57z"/>
<path d="M9127 4825 c9 -19 18 -33 21 -31 4 5 -26 66 -33 66 -3 0 3 -16 12
-35z"/>
<path d="M9415 4797 c-6 -15 49 -79 77 -90 11 -4 16 -13 12 -24 -5 -14 -4 -15
4 -4 6 8 8 20 5 28 -3 7 0 13 6 13 6 0 11 -5 11 -11 0 -14 29 -43 37 -36 10
11 -66 93 -86 93 -12 0 -21 -4 -21 -9 0 -5 -7 -4 -15 3 -9 7 -14 19 -11 26 3
7 1 16 -5 19 -5 4 -12 0 -14 -8z m78 -61 c4 -10 1 -13 -9 -9 -15 6 -19 23 -5
23 5 0 11 -7 14 -14z"/>
<path d="M9210 4770 c0 -5 5 -10 10 -10 6 0 10 5 10 10 0 6 -4 10 -10 10 -5 0
-10 -4 -10 -10z"/>
<path d="M9170 4730 c6 -11 13 -20 16 -20 2 0 0 9 -6 20 -6 11 -13 20 -16 20
-2 0 0 -9 6 -20z"/>
<path d="M9415 4740 c-3 -5 1 -10 10 -10 9 0 13 5 10 10 -3 6 -8 10 -10 10 -2
0 -7 -4 -10 -10z"/>
<path d="M9203 4723 c4 -3 3 -11 -3 -18 -6 -7 -1 -23 17 -48 24 -34 27 -35 40
-19 8 9 12 12 9 5 -4 -6 -2 -14 3 -17 5 -4 8 2 6 11 -2 10 -4 22 -4 27 -1 5
-7 3 -15 -3 -10 -9 -16 -8 -26 4 -11 13 -10 14 3 10 17 -7 32 10 17 20 -6 4
-8 10 -5 15 3 5 1 12 -5 15 -6 4 -10 3 -9 -2 3 -19 -2 -33 -12 -33 -6 0 -8 9
-4 20 4 13 2 20 -6 20 -7 0 -9 -3 -6 -7z"/>
<path d="M9446 4705 c4 -8 11 -15 16 -15 6 0 5 6 -2 15 -7 8 -14 15 -16 15 -2
0 -1 -7 2 -15z"/>
<path d="M18800 4655 c13 -14 26 -25 28 -25 3 0 -5 11 -18 25 -13 14 -26 25
-28 25 -3 0 5 -11 18 -25z"/>
<path d="M9255 4600 c3 -5 12 -7 20 -3 21 7 19 13 -6 13 -11 0 -18 -4 -14 -10z"/>
<path d="M9280 4581 c0 -4 8 -14 18 -22 9 -9 30 -33 45 -53 16 -21 31 -35 35
-32 3 3 -4 14 -14 23 -22 20 -59 75 -57 84 1 3 -5 6 -13 6 -7 0 -14 -3 -14 -6z"/>
<path d="M11519 3953 c-340 -345 -450 -463 -443 -475 4 -6 3 -8 -3 -5 -6 4
-90 -75 -187 -174 -97 -100 -176 -182 -174 -183 2 -1 19 -13 38 -27 19 -14
130 -82 245 -151 351 -210 1002 -596 1150 -683 77 -46 262 -154 410 -242 302
-179 359 -212 495 -290 52 -30 147 -86 210 -124 373 -224 711 -291 1101 -220
173 32 345 100 524 208 55 33 172 101 260 152 88 51 279 164 425 251 538 320
1189 705 1310 775 69 40 181 106 250 147 69 41 170 101 225 133 55 32 128 75
162 95 l62 36 -207 205 c-113 112 -192 188 -174 168 l33 -36 -173 -103 c-95
-56 -201 -120 -236 -141 -63 -39 -82 -46 -82 -31 0 5 -32 64 -71 132 -38 67
-67 126 -62 130 13 11 315 186 361 209 23 12 42 26 42 32 0 13 -265 279 -279
279 -6 0 -84 -43 -173 -96 -644 -381 -619 -368 -630 -352 -8 10 -9 9 -5 -4 4
-12 -22 -33 -111 -86 -150 -89 -748 -444 -827 -490 -33 -20 -106 -64 -162 -99
-57 -35 -105 -63 -107 -63 -2 0 -49 -27 -105 -60 -174 -103 -300 -145 -471
-156 -182 -12 -342 26 -523 126 -230 127 -517 303 -510 313 3 6 1 7 -6 3 -19
-12 -375 199 -364 217 3 6 1 7 -5 3 -7 -4 -111 52 -234 125 -243 144 -581 343
-668 394 -113 67 -272 163 -278 169 -3 4 27 40 68 81 41 41 72 75 70 75 -3 0
-80 -75 -171 -167z m-93 -374 c74 -44 134 -82 134 -85 0 -6 1 -7 -78 40 -35
21 -66 35 -70 32 -3 -4 0 -11 8 -16 11 -7 12 -10 2 -10 -7 0 -11 -4 -8 -8 3
-5 -1 -9 -9 -9 -8 0 -11 5 -8 11 16 26 9 49 -19 60 -15 6 -28 14 -28 18 0 4
-5 8 -11 8 -5 0 -7 -4 -4 -10 3 -5 1 -10 -5 -10 -7 0 -10 7 -6 15 9 25 -10 17
-24 -10 -14 -27 -5 -49 11 -25 7 11 8 5 4 -17 -3 -19 -1 -33 5 -33 5 0 10 4
10 9 0 5 11 9 25 9 14 0 25 -5 25 -11 0 -6 -3 -8 -6 -5 -3 4 -21 0 -39 -8 -45
-18 -47 -18 -40 9 5 16 4 18 -4 8 -14 -21 -41 -22 -42 -3 0 14 -2 13 -9 -3 -7
-17 -9 -17 -9 -2 -1 18 -21 25 -21 6 0 -6 -6 -9 -12 -6 -7 2 -12 10 -10 16 1
6 -2 11 -8 11 -13 0 -13 -6 0 -30 8 -16 8 -18 -5 -14 -8 3 -13 10 -10 14 3 5
1 11 -5 15 -5 3 -10 -1 -10 -10 0 -9 -4 -13 -10 -10 -5 3 -15 -3 -22 -15 -7
-11 -17 -20 -23 -20 -5 0 31 41 80 90 55 55 95 88 104 85 7 -3 74 -42 147 -86z
m-76 1 c0 -5 -2 -10 -4 -10 -3 0 -8 5 -11 10 -3 6 -1 10 4 10 6 0 11 -4 11
-10z m145 -70 c3 -5 1 -10 -4 -10 -6 0 -11 5 -11 10 0 6 2 10 4 10 3 0 8 -4
11 -10z m-149 -23 c1 -8 -4 -18 -11 -21 -9 -3 -12 0 -8 10 3 7 0 14 -6 14 -6
0 -11 4 -11 9 0 16 33 5 36 -12z m124 13 c0 -5 -10 -10 -22 -10 -19 0 -20 2
-8 10 19 13 30 13 30 0z m-204 -9 c8 7 14 7 19 -1 3 -5 -1 -13 -9 -16 -9 -3
-13 -11 -9 -18 3 -6 -4 -1 -16 11 -11 12 -21 26 -21 30 0 4 5 2 12 -5 8 -8 15
-8 24 -1z m109 -11 c3 -5 1 -10 -4 -10 -6 0 -11 5 -11 10 0 6 2 10 4 10 3 0 8
-4 11 -10z m270 -35 c19 -15 18 -15 -10 -1 -16 8 -39 22 -50 31 -19 15 -18 15
10 1 17 -8 39 -22 50 -31z m-185 25 c-8 -5 -19 -10 -25 -10 -5 0 -3 5 5 10 8
5 20 10 25 10 6 0 3 -5 -5 -10z m-300 -71 c27 -17 50 -33 50 -36 0 -4 -50 24
-95 54 -39 26 -4 12 45 -18z m663 -58 c75 -45 137 -84 137 -87 0 -3 -15 3 -32
14 -18 10 -84 49 -145 86 -62 37 -113 70 -113 72 0 3 3 3 8 1 4 -2 69 -41 145
-86z m-200 14 c-3 -9 -8 -14 -10 -11 -3 3 -2 9 2 15 9 16 15 13 8 -4z m87 -27
c-1 -10 -4 -9 -13 2 -7 9 -20 14 -31 12 -11 -3 -16 0 -11 7 3 6 11 9 16 6 5
-4 9 -1 9 5 0 7 6 5 15 -4 8 -8 15 -21 15 -28z m29 8 c-5 -6 -9 -18 -9 -28 0
-10 -7 -18 -16 -18 -8 0 -13 -4 -10 -8 2 -4 1 -14 -5 -22 -7 -13 -9 -13 -10 0
-1 8 -1 23 0 33 1 9 -3 17 -9 17 -6 0 -8 -4 -5 -10 3 -5 -2 -10 -12 -10 -16 0
-16 1 -1 16 12 12 20 13 35 6 20 -11 22 -8 24 40 0 14 3 15 14 5 8 -7 10 -16
4 -21z m-479 -2 c0 -2 -9 0 -20 6 -11 6 -20 13 -20 16 0 2 9 0 20 -6 11 -6 20
-13 20 -16z m512 -11 c-6 -2 -9 -10 -6 -15 4 -7 2 -8 -4 -4 -7 4 -12 2 -12 -5
0 -7 -2 -10 -5 -7 -10 10 7 38 24 37 10 0 11 -2 3 -6z m-162 -14 c0 -5 -4 -7
-10 -4 -5 3 -10 1 -10 -4 0 -6 -5 -11 -11 -11 -8 0 -8 5 1 15 14 17 30 20 30
4z m-266 -20 c20 -12 36 -23 36 -25 0 -5 -44 18 -70 35 -27 19 -2 11 34 -10z
m4951 -29 c9 -16 13 -30 11 -30 -3 0 -12 14 -21 30 -9 17 -13 30 -11 30 3 0
12 -13 21 -30z m-4785 0 c0 -5 -4 -10 -10 -10 -5 0 -10 5 -10 10 0 6 5 10 10
10 6 0 10 -4 10 -10z m280 0 c0 -5 -2 -10 -4 -10 -3 0 -8 5 -11 10 -3 6 -1 10
4 10 6 0 11 -4 11 -10z m40 0 c0 -5 -5 -10 -11 -10 -5 0 -7 5 -4 10 3 6 8 10
11 10 2 0 4 -4 4 -10z m-310 -64 c0 4 7 -1 16 -12 11 -13 17 -15 20 -6 3 6 11
9 16 6 7 -5 8 -2 4 5 -5 7 -15 10 -23 7 -8 -3 -12 -2 -8 3 3 5 2 11 -2 14 -5
2 -2 2 5 0 8 -2 16 6 19 17 3 11 10 20 15 20 5 0 6 -4 3 -10 -6 -10 7 -14 32
-11 6 1 14 -3 18 -9 3 -5 1 -10 -4 -10 -6 0 -10 -6 -8 -12 1 -7 -6 -12 -15
-10 -10 2 -18 -2 -18 -8 0 -5 -7 -10 -16 -10 -8 0 -12 -5 -9 -10 4 -6 10 -8
15 -5 4 3 10 1 12 -3 1 -4 31 -25 66 -46 34 -20 62 -40 62 -42 0 -6 -6 -3
-175 96 -146 85 -210 130 -92 65 37 -20 67 -33 67 -29z m235 55 c-3 -5 -1 -12
5 -16 6 -4 8 -11 5 -16 -4 -5 -1 -9 4 -9 6 0 11 7 11 15 0 8 4 15 9 15 6 0 9
-8 8 -18 -1 -16 -8 -19 -42 -17 -50 3 -50 2 -36 18 6 8 7 18 3 22 -4 5 -2 5 5
1 6 -3 14 -2 18 4 3 5 8 10 11 10 3 0 3 -4 -1 -9z m320 -64 c6 -6 -12 2 -40
18 -27 15 -54 32 -60 38 -5 6 13 -2 40 -18 28 -15 55 -32 60 -38z m4085 38 c0
-2 -13 -11 -30 -20 -38 -19 -40 -11 -2 9 31 17 32 18 32 11z m-4484 -17 c4 -7
4 -10 -1 -6 -4 4 -14 3 -22 -4 -11 -8 -12 -7 -7 6 7 19 20 21 30 4z m4664 -28
c6 -11 8 -20 6 -20 -3 0 -10 9 -16 20 -6 11 -8 20 -6 20 3 0 10 -9 16 -20z
m-250 1 c0 -5 -13 -14 -30 -21 -16 -7 -30 -16 -30 -19 0 -4 -17 -15 -37 -25
-69 -32 -87 -47 -72 -58 10 -7 9 -8 -6 -4 -19 5 -78 -23 -177 -83 -21 -13 -38
-21 -38 -18 0 3 66 44 148 93 81 48 167 100 192 115 53 33 50 31 50 20z
m-4426 -16 c-4 -8 -8 -15 -10 -15 -2 0 -4 7 -4 15 0 8 4 15 10 15 5 0 7 -7 4
-15z m-34 -5 c0 -5 -5 -10 -11 -10 -5 0 -7 5 -4 10 3 6 8 10 11 10 2 0 4 -4 4
-10z m585 -55 c11 -9 2 -7 -20 6 -22 12 -44 26 -50 32 -16 15 48 -20 70 -38z
m4181 -27 c19 -36 18 -37 -66 -85 -25 -14 -90 -53 -145 -86 -55 -33 -115 -68
-132 -79 -18 -11 -33 -17 -33 -15 0 5 146 96 275 171 118 68 109 59 91 95 -9
17 -14 31 -12 31 3 0 13 -14 22 -32z m-4081 -33 c11 -9 2 -7 -20 6 -22 12 -44
26 -50 32 -16 15 48 -20 70 -38z m-210 15 c3 -5 1 -10 -4 -10 -6 0 -11 5 -11
10 0 6 2 10 4 10 3 0 8 -4 11 -10z m3885 0 c0 -5 -4 -10 -10 -10 -5 0 -10 5
-10 10 0 6 5 10 10 10 6 0 10 -4 10 -10z m-4220 -26 c0 -2 -9 0 -20 6 -11 6
-20 13 -20 16 0 2 9 0 20 -6 11 -6 20 -13 20 -16z m4170 1 c-14 -17 -30 -20
-30 -6 0 5 8 12 18 14 9 3 19 5 21 6 2 0 -2 -6 -9 -14z m175 -14 c-3 -6 -11
-11 -16 -11 -5 0 -4 6 3 14 14 16 24 13 13 -3z m-3552 -121 c114 -67 207 -124
207 -127 0 -5 -89 45 -165 92 -27 17 -57 35 -65 39 -17 8 -29 15 -128 75 -40
24 -72 45 -72 48 0 5 -20 17 223 -127z m-623 34 c0 -2 -13 2 -30 11 -16 9 -30
18 -30 21 0 2 14 -2 30 -11 17 -9 30 -18 30 -21z m3745 6 c-3 -5 -12 -10 -18
-10 -7 0 -6 4 3 10 19 12 23 12 15 0z m-40 -20 c-3 -6 -21 -17 -38 -26 -36
-19 -31 -9 10 17 34 21 36 22 28 9z m-3228 -23 c6 -4 14 -1 16 5 4 10 8 9 16
-2 10 -13 11 -13 11 0 0 13 1 13 11 0 8 -11 12 -12 16 -2 8 21 23 13 21 -13
-2 -20 -6 -24 -23 -19 -11 4 -26 12 -34 18 -11 8 -15 8 -18 -1 -3 -7 -9 -13
-14 -13 -6 0 -8 4 -4 9 3 5 1 12 -5 16 -5 3 -10 -2 -11 -12 0 -10 -3 -13 -6
-5 -2 6 -9 12 -14 12 -6 0 -7 -4 -4 -10 3 -6 -1 -7 -10 -4 -12 5 -13 10 -4 20
11 14 35 14 56 1z m-87 -1 c0 -3 -4 -8 -10 -11 -5 -3 -10 -1 -10 4 0 6 5 11
10 11 6 0 10 -2 10 -4z m205 -16 c3 -5 1 -10 -4 -10 -6 0 -11 5 -11 10 0 6 2
10 4 10 3 0 8 -4 11 -10z m-400 -63 c16 -15 -68 29 -90 48 -11 9 3 4 30 -11
28 -15 55 -32 60 -37z m3410 43 c-3 -5 -16 -15 -28 -21 -19 -9 -19 -8 3 10 28
23 34 26 25 11z m-100 -60 c-3 -6 -21 -17 -38 -26 -36 -19 -31 -9 10 17 34 21
36 22 28 9z m-3225 -31 c17 -13 18 -17 5 -10 -33 17 -51 31 -40 31 6 0 21 -10
35 -21z m3740 6 c0 -2 -10 -9 -22 -15 -22 -11 -22 -10 -4 4 21 17 26 19 26 11z
m-3095 -58 c16 -15 -48 20 -70 38 -11 9 -2 7 20 -6 22 -12 45 -26 50 -32z
m2500 34 c-11 -10 -323 -199 -365 -221 -69 -35 15 20 180 119 179 107 205 122
185 102z m-3056 -32 c28 -18 51 -34 51 -36 0 -5 -48 21 -85 46 -47 32 -22 24
34 -10z m3586 15 c-25 -20 -75 -46 -75 -40 0 5 82 56 90 56 3 -1 -4 -8 -15
-16z m-2925 -80 c0 -2 -13 2 -30 11 -16 9 -30 18 -30 21 0 2 14 -2 30 -11 17
-9 30 -18 30 -21z m2840 31 c0 -2 -10 -9 -22 -15 -22 -11 -22 -10 -4 4 21 17
26 19 26 11z m-3400 -31 c0 -2 -9 0 -20 6 -11 6 -20 13 -20 16 0 2 9 0 20 -6
11 -6 20 -13 20 -16z m3350 1 c0 -2 -10 -9 -22 -15 -22 -11 -22 -10 -4 4 21
17 26 19 26 11z m-2740 -31 c0 -2 -9 0 -20 6 -11 6 -20 13 -20 16 0 2 9 0 20
-6 11 -6 20 -13 20 -16z m2690 1 c0 -2 -13 -11 -30 -20 -38 -19 -40 -11 -2 9
31 17 32 18 32 11z m-555 -55 c-19 -21 -65 -28 -65 -9 0 6 7 9 15 5 8 -3 15
-1 15 4 0 5 10 11 23 13 12 2 24 5 26 6 2 0 -4 -8 -14 -19z m44 3 c1 10 5 16
11 12 15 -9 0 -35 -21 -35 -21 0 -22 1 -12 26 6 16 7 16 14 -2 7 -17 8 -17 8
-1z m141 7 c12 -7 10 -9 -8 -7 -12 0 -22 5 -22 9 0 11 12 10 30 -2z m-2033
-123 c57 -33 101 -62 99 -64 -2 -2 -25 10 -52 27 -27 17 -55 28 -62 25 -7 -2
-11 -1 -8 3 3 5 -27 27 -67 50 -40 22 -81 48 -92 57 -24 20 45 -17 182 -98z
m2298 105 c-6 -5 -28 -19 -50 -32 -32 -19 -36 -20 -20 -4 11 11 31 25 45 31
31 14 37 15 25 5z m-2995 -28 c0 -2 -9 0 -20 6 -11 6 -20 13 -20 16 0 2 9 0
20 -6 11 -6 20 -13 20 -16z m50 -30 c0 -2 -9 0 -20 6 -11 6 -20 13 -20 16 0 2
9 0 20 -6 11 -6 20 -13 20 -16z m2295 0 c-24 -19 -95 -56 -95 -50 0 5 102 66
110 65 3 0 -4 -7 -15 -15z m555 2 c0 -2 -48 -32 -107 -67 -60 -34 -118 -69
-130 -77 -13 -8 -23 -12 -23 -9 0 6 84 60 149 95 24 13 58 32 75 43 33 20 36
21 36 15z m-2730 -72 c0 -2 -9 0 -20 6 -11 6 -20 13 -20 16 0 2 9 0 20 -6 11
-6 20 -13 20 -16z m130 -81 c0 -6 -71 37 -90 55 -8 7 9 0 38 -18 28 -17 52
-34 52 -37z m300 57 c0 -5 -2 -10 -4 -10 -3 0 -8 5 -11 10 -3 6 -1 10 4 10 6
0 11 -4 11 -10z m323 -85 c26 -15 47 -29 47 -32 0 -5 -109 56 -141 80 -26 20
-6 10 94 -48z m1707 20 c0 -2 -13 -11 -30 -20 -38 -19 -40 -11 -2 9 31 17 32
18 32 11z m-2195 -68 c6 -6 -12 2 -40 18 -27 15 -54 32 -60 38 -5 6 13 -2 40
-18 28 -15 55 -32 60 -38z m2125 28 c0 -2 -15 -12 -32 -20 l-33 -16 25 20 c24
20 40 26 40 16z m-1520 -51 c0 -2 -13 2 -30 11 -16 9 -30 18 -30 21 0 2 14 -2
30 -11 17 -9 30 -18 30 -21z m-450 -66 l25 -20 -27 16 c-15 9 -49 28 -75 42
-26 15 -52 31 -58 36 -17 17 108 -52 135 -74z m1885 66 c-26 -20 -55 -36 -55
-30 0 5 63 46 70 46 3 -1 -4 -8 -15 -16z m-560 -2 c-6 -5 -37 -20 -70 -34
-117 -49 -113 -47 -87 -47 29 -1 29 -16 -1 -17 -15 -1 -23 4 -24 16 -1 12 11
21 40 30 23 7 62 23 87 36 46 23 72 31 55 16z m-795 -32 c8 -5 11 -10 5 -10
-5 0 -17 5 -25 10 -8 5 -10 10 -5 10 6 0 17 -5 25 -10z m1290 -5 c0 -2 -10 -9
-22 -15 -22 -11 -22 -10 -4 4 21 17 26 19 26 11z m-693 -41 c-3 -3 -12 -4 -19
-1 -8 3 -5 6 6 6 11 1 17 -2 13 -5z m-1037 -40 c0 -2 -13 2 -30 11 -16 9 -30
18 -30 21 0 2 14 -2 30 -11 17 -9 30 -18 30 -21z m997 30 c-3 -3 -12 -4 -19
-1 -8 3 -5 6 6 6 11 1 17 -2 13 -5z m-40 -10 c-3 -3 -12 -4 -19 -1 -8 3 -5 6
6 6 11 1 17 -2 13 -5z m-84 -11 c-7 -2 -21 -2 -30 0 -10 3 -4 5 12 5 17 0 24
-2 18 -5z m732 -1 c-18 -15 -85 -54 -85 -48 0 3 19 16 43 30 43 26 59 33 42
18z m-110 -68 c-23 -18 -124 -70 -112 -58 9 9 120 73 127 73 3 0 -4 -7 -15
-15z m-1365 -20 c0 -2 -9 0 -20 6 -11 6 -20 13 -20 16 0 2 9 0 20 -6 11 -6 20
-13 20 -16z m1240 -49 c0 -2 -13 -11 -30 -20 -38 -19 -40 -11 -2 9 31 17 32
18 32 11z m-90 -50 c0 -2 -10 -9 -22 -15 -22 -11 -22 -10 -4 4 21 17 26 19 26
11z m-165 -45 c-3 -5 -14 -10 -23 -10 -15 0 -15 2 -2 10 20 13 33 13 25 0z
m56 -11 c-24 -11 -49 -18 -55 -15 -6 2 -3 5 7 5 9 1 17 6 17 12 0 5 3 8 8 6 4
-3 16 -1 27 4 42 16 38 7 -4 -12z m-726 -7 c-3 -3 -11 0 -18 7 -9 10 -8 11 6
5 10 -3 15 -9 12 -12z m582 -38 c-3 -3 -12 -4 -19 -1 -8 3 -5 6 6 6 11 1 17
-2 13 -5z"/>
<path d="M11586 3211 c-3 -5 3 -11 15 -14 16 -4 18 -3 8 9 -13 16 -16 17 -23
5z"/>
<path d="M11737 3233 c-4 -3 -7 -11 -7 -17 0 -6 5 -5 12 2 6 6 9 14 7 17 -3 3
-9 2 -12 -2z"/>
<path d="M15960 3598 c0 -4 4 -8 9 -8 6 0 12 4 15 8 3 5 -1 9 -9 9 -8 0 -15
-4 -15 -9z"/>
<path d="M12274 3551 c7 -11 46 -35 46 -28 0 3 -12 12 -26 22 -15 9 -23 12
-20 6z"/>
</g>
</svg>
